<?xml version="1.0" encoding="UTF-8"?>
<!DOCTYPE svg PUBLIC "-//W3C//DTD SVG 1.1//EN" "http://www.w3.org/Graphics/SVG/1.1/DTD/svg11.dtd">
<!-- Creator: CorelDRAW X5 -->
<svg xmlns="http://www.w3.org/2000/svg" xml:space="preserve" width="158.75mm" height="132.292mm" style="shape-rendering:geometricPrecision; text-rendering:geometricPrecision; image-rendering:optimizeQuality; fill-rule:evenodd; clip-rule:evenodd"
viewBox="0 0 164.186 136.822"
 xmlns:xlink="http://www.w3.org/1999/xlink">
 <defs>
  <style type="text/css">
   <![CDATA[
    .str2 {stroke:black;stroke-width:0.273661;stroke-linecap:round;stroke-linejoin:round}
    .str3 {stroke:#FB0006;stroke-width:0.547323;stroke-linecap:round;stroke-linejoin:round;stroke-opacity:0.501961}
    .str0 {stroke:black;stroke-width:0.820984;stroke-linejoin:round}
    .str1 {stroke:black;stroke-width:0.273661;stroke-linecap:round;stroke-linejoin:round;stroke-dasharray:0.788406 1.401610}
    .fil1 {fill:none;fill-rule:nonzero}
    .fil3 {fill:none;fill-rule:nonzero}
    .fil2 {fill:black;fill-rule:nonzero}
    .fil0 {fill:white;fill-rule:nonzero}
   ]]>
  </style>
 </defs>
 <g id="Vrstva_x0020_1">
  <metadata id="CorelCorpID_0Corel-Layer"/>
  <polygon class="fil0" points="-0,136.822 164.186,136.822 164.186,0 -0,0 "/>
  <polygon class="fil0" points="28.8531,99.4385 48.3511,99.4385 48.3511,88.7446 28.8531,88.7446 "/>
  <line class="fil1 str0" x1="28.8531" y1="94.4801" x2="48.3511" y2= "94.4801" />
  <line class="fil1 str1" x1="38.6021" y1="104.069" x2="38.6021" y2= "99.4385" />
  <line class="fil1 str1" x1="38.6021" y1="72.8768" x2="38.6021" y2= "88.7445" />
  <line class="fil1 str2" x1="33.7275" y1="104.069" x2="43.4766" y2= "104.069" />
  <line class="fil1 str2" x1="33.7275" y1="72.8768" x2="43.4766" y2= "72.8768" />
  <polygon class="fil1 str2" points="28.8531,99.4385 48.3511,99.4385 48.3511,88.7445 28.8531,88.7445 "/>
  <path class="fil1 str2" d="M39.5872 64.0108c0,-0.544013 -0.441106,-0.985119 -0.985119,-0.985119 -0.544013,0 -0.985119,0.441106 -0.985119,0.985119 0,0.544013 0.441106,0.985119 0.985119,0.985119 0.544013,0 0.985119,-0.441106 0.985119,-0.985119z"/>
  <path class="fil1 str2" d="M39.5872 63.2483c0,-0.544013 -0.441106,-0.985119 -0.985119,-0.985119 -0.544013,0 -0.985119,0.441106 -0.985119,0.985119 0,0.544013 0.441106,0.985119 0.985119,0.985119 0.544013,0 0.985119,-0.441106 0.985119,-0.985119z"/>
  <path class="fil1 str2" d="M39.5872 27.6161c0,-0.544013 -0.441106,-0.985119 -0.985119,-0.985119 -0.544013,0 -0.985119,0.441106 -0.985119,0.985119 0,0.544013 0.441106,0.985119 0.985119,0.985119 0.544013,0 0.985119,-0.441106 0.985119,-0.985119z"/>
  <path class="fil1 str2" d="M39.5872 72.2785c0,-0.544013 -0.441106,-0.985119 -0.985119,-0.985119 -0.544013,0 -0.985119,0.441106 -0.985119,0.985119 0,0.544013 0.441106,0.985119 0.985119,0.985119 0.544013,0 0.985119,-0.441106 0.985119,-0.985119z"/>
  <path class="fil1 str2" d="M39.5872 57.4908c0,-0.544013 -0.441106,-0.985119 -0.985119,-0.985119 -0.544013,0 -0.985119,0.441106 -0.985119,0.985119 0,0.544013 0.441106,0.985119 0.985119,0.985119 0.544013,0 0.985119,-0.441106 0.985119,-0.985119z"/>
  <path class="fil1 str2" d="M39.5872 71.2167c0,-0.544013 -0.441106,-0.985119 -0.985119,-0.985119 -0.544013,0 -0.985119,0.441106 -0.985119,0.985119 0,0.544013 0.441106,0.985119 0.985119,0.985119 0.544013,0 0.985119,-0.441106 0.985119,-0.985119z"/>
  <polygon class="fil0" points="53.2256,99.143 72.7235,99.143 72.7235,90.12 53.2256,90.12 "/>
  <line class="fil1 str0" x1="53.2256" y1="95.3594" x2="72.7236" y2= "95.3594" />
  <line class="fil1 str1" x1="62.9746" y1="104.357" x2="62.9746" y2= "99.143" />
  <line class="fil1 str1" x1="62.9746" y1="76.6787" x2="62.9746" y2= "90.12" />
  <line class="fil1 str2" x1="58.1001" y1="104.357" x2="67.8491" y2= "104.357" />
  <line class="fil1 str2" x1="58.1001" y1="76.6787" x2="67.8491" y2= "76.6787" />
  <polygon class="fil1 str2" points="53.2256,99.143 72.7236,99.143 72.7236,90.12 53.2256,90.12 "/>
  <path class="fil1 str2" d="M63.9597 59.7128c0,-0.544013 -0.441106,-0.985119 -0.985119,-0.985119 -0.54391,0 -0.985119,0.441106 -0.985119,0.985119 0,0.544013 0.441209,0.985119 0.985119,0.985119 0.544013,0 0.985119,-0.441106 0.985119,-0.985119z"/>
  <path class="fil1 str2" d="M63.9597 38.4598c0,-0.544013 -0.441106,-0.985119 -0.985119,-0.985119 -0.54391,0 -0.985119,0.441106 -0.985119,0.985119 0,0.544013 0.441209,0.985119 0.985119,0.985119 0.544013,0 0.985119,-0.441106 0.985119,-0.985119z"/>
  <path class="fil1 str2" d="M63.9597 62.0224c0,-0.544013 -0.441106,-0.985119 -0.985119,-0.985119 -0.54391,0 -0.985119,0.441106 -0.985119,0.985119 0,0.544013 0.441209,0.985119 0.985119,0.985119 0.544013,0 0.985119,-0.441106 0.985119,-0.985119z"/>
  <path class="fil1 str2" d="M63.9597 76.5436c0,-0.544013 -0.441106,-0.985119 -0.985119,-0.985119 -0.54391,0 -0.985119,0.441106 -0.985119,0.985119 0,0.544013 0.441209,0.985119 0.985119,0.985119 0.544013,0 0.985119,-0.441106 0.985119,-0.985119z"/>
  <path class="fil1 str2" d="M63.9597 28.7509c0,-0.544013 -0.441106,-0.985119 -0.985119,-0.985119 -0.54391,0 -0.985119,0.441106 -0.985119,0.985119 0,0.544013 0.441209,0.985119 0.985119,0.985119 0.544013,0 0.985119,-0.441106 0.985119,-0.985119z"/>
  <path class="fil1 str2" d="M63.9597 52.5469c0,-0.544013 -0.441106,-0.985119 -0.985119,-0.985119 -0.54391,0 -0.985119,0.441106 -0.985119,0.985119 0,0.544013 0.441209,0.985119 0.985119,0.985119 0.544013,0 0.985119,-0.441106 0.985119,-0.985119z"/>
  <path class="fil1 str2" d="M63.9597 37.8066c0,-0.544013 -0.441106,-0.985119 -0.985119,-0.985119 -0.54391,0 -0.985119,0.441106 -0.985119,0.985119 0,0.544013 0.441209,0.985119 0.985119,0.985119 0.544013,0 0.985119,-0.441106 0.985119,-0.985119z"/>
  <path class="fil1 str2" d="M63.9597 69.1589c0,-0.544013 -0.441106,-0.985119 -0.985119,-0.985119 -0.54391,0 -0.985119,0.441106 -0.985119,0.985119 0,0.544013 0.441209,0.985119 0.985119,0.985119 0.544013,0 0.985119,-0.441106 0.985119,-0.985119z"/>
  <path class="fil1 str2" d="M63.9597 71.9647c0,-0.544013 -0.441106,-0.985119 -0.985119,-0.985119 -0.54391,0 -0.985119,0.441106 -0.985119,0.985119 0,0.544013 0.441209,0.985119 0.985119,0.985119 0.544013,0 0.985119,-0.441106 0.985119,-0.985119z"/>
  <path class="fil1 str2" d="M63.9597 52.9593c0,-0.544013 -0.441106,-0.985119 -0.985119,-0.985119 -0.54391,0 -0.985119,0.441106 -0.985119,0.985119 0,0.544013 0.441209,0.985119 0.985119,0.985119 0.544013,0 0.985119,-0.441106 0.985119,-0.985119z"/>
  <path class="fil1 str2" d="M63.9597 71.7457c0,-0.544013 -0.441106,-0.985119 -0.985119,-0.985119 -0.54391,0 -0.985119,0.441106 -0.985119,0.985119 0,0.544013 0.441209,0.985119 0.985119,0.985119 0.544013,0 0.985119,-0.441106 0.985119,-0.985119z"/>
  <path class="fil1 str2" d="M63.9597 71.7457c0,-0.544013 -0.441106,-0.985119 -0.985119,-0.985119 -0.54391,0 -0.985119,0.441106 -0.985119,0.985119 0,0.544013 0.441209,0.985119 0.985119,0.985119 0.544013,0 0.985119,-0.441106 0.985119,-0.985119z"/>
  <path class="fil1 str2" d="M63.9597 35.4971c0,-0.544013 -0.441106,-0.985119 -0.985119,-0.985119 -0.54391,0 -0.985119,0.441106 -0.985119,0.985119 0,0.544013 0.441209,0.985119 0.985119,0.985119 0.544013,0 0.985119,-0.441106 0.985119,-0.985119z"/>
  <path class="fil1 str2" d="M63.9597 33.7166c0,-0.544013 -0.441106,-0.985119 -0.985119,-0.985119 -0.54391,0 -0.985119,0.441106 -0.985119,0.985119 0,0.544013 0.441209,0.985119 0.985119,0.985119 0.544013,0 0.985119,-0.441106 0.985119,-0.985119z"/>
  <path class="fil1 str2" d="M63.9597 25.9998c0,-0.544013 -0.441106,-0.985119 -0.985119,-0.985119 -0.54391,0 -0.985119,0.441106 -0.985119,0.985119 0,0.544013 0.441209,0.985119 0.985119,0.985119 0.544013,0 0.985119,-0.441106 0.985119,-0.985119z"/>
  <path class="fil1 str2" d="M63.9597 26.434c0,-0.544013 -0.441106,-0.985119 -0.985119,-0.985119 -0.54391,0 -0.985119,0.441106 -0.985119,0.985119 0,0.544013 0.441209,0.985119 0.985119,0.985119 0.544013,0 0.985119,-0.441106 0.985119,-0.985119z"/>
  <path class="fil1 str2" d="M63.9597 55.6519c0,-0.544013 -0.441106,-0.985119 -0.985119,-0.985119 -0.54391,0 -0.985119,0.441106 -0.985119,0.985119 0,0.544013 0.441209,0.985119 0.985119,0.985119 0.544013,0 0.985119,-0.441106 0.985119,-0.985119z"/>
  <path class="fil1 str2" d="M63.9597 44.1515c0,-0.544013 -0.441106,-0.985119 -0.985119,-0.985119 -0.54391,0 -0.985119,0.441106 -0.985119,0.985119 0,0.544013 0.441209,0.985119 0.985119,0.985119 0.544013,0 0.985119,-0.441106 0.985119,-0.985119z"/>
  <path class="fil1 str2" d="M63.9597 61.0227c0,-0.544013 -0.441106,-0.985119 -0.985119,-0.985119 -0.54391,0 -0.985119,0.441106 -0.985119,0.985119 0,0.544013 0.441209,0.985119 0.985119,0.985119 0.544013,0 0.985119,-0.441106 0.985119,-0.985119z"/>
  <path class="fil1 str2" d="M63.9597 71.8917c0,-0.544013 -0.441106,-0.985119 -0.985119,-0.985119 -0.54391,0 -0.985119,0.441106 -0.985119,0.985119 0,0.544013 0.441209,0.985119 0.985119,0.985119 0.544013,0 0.985119,-0.441106 0.985119,-0.985119z"/>
  <path class="fil1 str2" d="M63.9597 76.4633c0,-0.544013 -0.441106,-0.985119 -0.985119,-0.985119 -0.54391,0 -0.985119,0.441106 -0.985119,0.985119 0,0.544013 0.441209,0.985119 0.985119,0.985119 0.544013,0 0.985119,-0.441106 0.985119,-0.985119z"/>
  <path class="fil1 str2" d="M63.9597 60.873c0,-0.544013 -0.441106,-0.985119 -0.985119,-0.985119 -0.54391,0 -0.985119,0.441106 -0.985119,0.985119 0,0.544013 0.441209,0.985119 0.985119,0.985119 0.544013,0 0.985119,-0.441106 0.985119,-0.985119z"/>
  <path class="fil1 str2" d="M63.9597 65.047c0,-0.544013 -0.441106,-0.985119 -0.985119,-0.985119 -0.54391,0 -0.985119,0.441106 -0.985119,0.985119 0,0.544013 0.441209,0.985119 0.985119,0.985119 0.544013,0 0.985119,-0.441106 0.985119,-0.985119z"/>
  <path class="fil1 str2" d="M63.9597 47.8804c0,-0.544013 -0.441106,-0.985119 -0.985119,-0.985119 -0.54391,0 -0.985119,0.441106 -0.985119,0.985119 0,0.544013 0.441209,0.985119 0.985119,0.985119 0.544013,0 0.985119,-0.441106 0.985119,-0.985119z"/>
  <path class="fil1 str2" d="M63.9597 50.7409c0,-0.544013 -0.441106,-0.985119 -0.985119,-0.985119 -0.54391,0 -0.985119,0.441106 -0.985119,0.985119 0,0.544013 0.441209,0.985119 0.985119,0.985119 0.544013,0 0.985119,-0.441106 0.985119,-0.985119z"/>
  <path class="fil1 str2" d="M63.9597 42.5535c0,-0.544013 -0.441106,-0.985119 -0.985119,-0.985119 -0.54391,0 -0.985119,0.441106 -0.985119,0.985119 0,0.54391 0.441209,0.985119 0.985119,0.985119 0.544013,0 0.985119,-0.441209 0.985119,-0.985119z"/>
  <path class="fil1 str2" d="M63.9597 69.6515c0,-0.544013 -0.441106,-0.985119 -0.985119,-0.985119 -0.54391,0 -0.985119,0.441106 -0.985119,0.985119 0,0.544013 0.441209,0.985119 0.985119,0.985119 0.544013,0 0.985119,-0.441106 0.985119,-0.985119z"/>
  <path class="fil1 str2" d="M63.9597 64.3939c0,-0.544013 -0.441106,-0.985119 -0.985119,-0.985119 -0.54391,0 -0.985119,0.441106 -0.985119,0.985119 0,0.544013 0.441209,0.985119 0.985119,0.985119 0.544013,0 0.985119,-0.441106 0.985119,-0.985119z"/>
  <path class="fil1 str2" d="M63.9597 38.7371c0,-0.544013 -0.441106,-0.985119 -0.985119,-0.985119 -0.54391,0 -0.985119,0.441106 -0.985119,0.985119 0,0.544013 0.441209,0.985119 0.985119,0.985119 0.544013,0 0.985119,-0.441106 0.985119,-0.985119z"/>
  <path class="fil1 str2" d="M63.9597 71.3882c0,-0.544013 -0.441106,-0.985119 -0.985119,-0.985119 -0.54391,0 -0.985119,0.441106 -0.985119,0.985119 0,0.544013 0.441209,0.985119 0.985119,0.985119 0.544013,0 0.985119,-0.441106 0.985119,-0.985119z"/>
  <path class="fil1 str2" d="M63.9597 62.7229c0,-0.544013 -0.441106,-0.985119 -0.985119,-0.985119 -0.54391,0 -0.985119,0.441106 -0.985119,0.985119 0,0.544013 0.441209,0.985119 0.985119,0.985119 0.544013,0 0.985119,-0.441106 0.985119,-0.985119z"/>
  <path class="fil1 str2" d="M63.9597 61.9785c0,-0.54391 -0.441106,-0.985119 -0.985119,-0.985119 -0.54391,0 -0.985119,0.441209 -0.985119,0.985119 0,0.544013 0.441209,0.985119 0.985119,0.985119 0.544013,0 0.985119,-0.441106 0.985119,-0.985119z"/>
  <polygon class="fil0" points="77.5981,100.322 97.0961,100.322 97.0961,92.0245 77.5981,92.0245 "/>
  <line class="fil1 str0" x1="77.5981" y1="97.0633" x2="97.0961" y2= "97.0633" />
  <line class="fil1 str1" x1="87.3471" y1="105.32" x2="87.3471" y2= "100.322" />
  <line class="fil1 str1" x1="87.3471" y1="79.7654" x2="87.3471" y2= "92.0246" />
  <line class="fil1 str2" x1="82.4726" y1="105.32" x2="92.2216" y2= "105.32" />
  <line class="fil1 str2" x1="82.4726" y1="79.7654" x2="92.2216" y2= "79.7654" />
  <polygon class="fil1 str2" points="77.5981,100.322 97.0961,100.322 97.0961,92.0246 77.5981,92.0246 "/>
  <path class="fil1 str2" d="M88.3322 75.1644c0,-0.544013 -0.441106,-0.985119 -0.985119,-0.985119 -0.544013,0 -0.985119,0.441106 -0.985119,0.985119 0,0.544013 0.441106,0.985119 0.985119,0.985119 0.544013,0 0.985119,-0.441106 0.985119,-0.985119z"/>
  <path class="fil1 str2" d="M88.3322 45.2133c0,-0.544013 -0.441106,-0.985119 -0.985119,-0.985119 -0.544013,0 -0.985119,0.441106 -0.985119,0.985119 0,0.544013 0.441106,0.985119 0.985119,0.985119 0.544013,0 0.985119,-0.441106 0.985119,-0.985119z"/>
  <path class="fil1 str2" d="M88.3322 77.0763c0,-0.544013 -0.441106,-0.985119 -0.985119,-0.985119 -0.544013,0 -0.985119,0.441106 -0.985119,0.985119 0,0.544013 0.441106,0.985119 0.985119,0.985119 0.544013,0 0.985119,-0.441106 0.985119,-0.985119z"/>
  <path class="fil1 str2" d="M88.3322 69.7098c0,-0.544013 -0.441106,-0.985119 -0.985119,-0.985119 -0.544013,0 -0.985119,0.441106 -0.985119,0.985119 0,0.544013 0.441106,0.985119 0.985119,0.985119 0.544013,0 0.985119,-0.441106 0.985119,-0.985119z"/>
  <path class="fil1 str2" d="M88.3322 65.3426c0,-0.544013 -0.441106,-0.985119 -0.985119,-0.985119 -0.544013,0 -0.985119,0.441106 -0.985119,0.985119 0,0.54391 0.441106,0.985119 0.985119,0.985119 0.544013,0 0.985119,-0.441209 0.985119,-0.985119z"/>
  <path class="fil1 str2" d="M88.3322 67.0245c0,-0.54391 -0.441106,-0.985016 -0.985119,-0.985016 -0.544013,0 -0.985119,0.441106 -0.985119,0.985016 0,0.544013 0.441106,0.985119 0.985119,0.985119 0.544013,0 0.985119,-0.441106 0.985119,-0.985119z"/>
  <path class="fil1 str2" d="M88.3322 67.1631c0,-0.54391 -0.441106,-0.985016 -0.985119,-0.985016 -0.544013,0 -0.985119,0.441106 -0.985119,0.985016 0,0.544013 0.441106,0.985119 0.985119,0.985119 0.544013,0 0.985119,-0.441106 0.985119,-0.985119z"/>
  <path class="fil1 str2" d="M88.3322 79.1779c0,-0.544013 -0.441106,-0.985119 -0.985119,-0.985119 -0.544013,0 -0.985119,0.441106 -0.985119,0.985119 0,0.544013 0.441106,0.985119 0.985119,0.985119 0.544013,0 0.985119,-0.441106 0.985119,-0.985119z"/>
  <path class="fil1 str2" d="M88.3322 76.7845c0,-0.544013 -0.441106,-0.985119 -0.985119,-0.985119 -0.544013,0 -0.985119,0.441106 -0.985119,0.985119 0,0.544013 0.441106,0.985119 0.985119,0.985119 0.544013,0 0.985119,-0.441106 0.985119,-0.985119z"/>
  <path class="fil1 str2" d="M88.3322 53.8933c0,-0.544013 -0.441106,-0.985119 -0.985119,-0.985119 -0.544013,0 -0.985119,0.441106 -0.985119,0.985119 0,0.544013 0.441106,0.985119 0.985119,0.985119 0.544013,0 0.985119,-0.441106 0.985119,-0.985119z"/>
  <path class="fil1 str2" d="M88.3322 56.9508c0,-0.544013 -0.441106,-0.985119 -0.985119,-0.985119 -0.544013,0 -0.985119,0.441106 -0.985119,0.985119 0,0.544013 0.441106,0.985119 0.985119,0.985119 0.544013,0 0.985119,-0.441106 0.985119,-0.985119z"/>
  <path class="fil1 str2" d="M88.3322 69.2391c0,-0.544013 -0.441106,-0.985119 -0.985119,-0.985119 -0.544013,0 -0.985119,0.441106 -0.985119,0.985119 0,0.544013 0.441106,0.985119 0.985119,0.985119 0.544013,0 0.985119,-0.441106 0.985119,-0.985119z"/>
  <path class="fil1 str2" d="M88.3322 60.4936c0,-0.544013 -0.441106,-0.985119 -0.985119,-0.985119 -0.544013,0 -0.985119,0.441106 -0.985119,0.985119 0,0.544013 0.441106,0.985119 0.985119,0.985119 0.544013,0 0.985119,-0.441106 0.985119,-0.985119z"/>
  <path class="fil1 str2" d="M88.3322 46.0597c0,-0.54391 -0.441106,-0.985119 -0.985119,-0.985119 -0.544013,0 -0.985119,0.441209 -0.985119,0.985119 0,0.544013 0.441106,0.985119 0.985119,0.985119 0.544013,0 0.985119,-0.441106 0.985119,-0.985119z"/>
  <path class="fil1 str2" d="M88.3322 74.6282c0,-0.544013 -0.441106,-0.985119 -0.985119,-0.985119 -0.544013,0 -0.985119,0.441106 -0.985119,0.985119 0,0.54391 0.441106,0.985119 0.985119,0.985119 0.544013,0 0.985119,-0.441209 0.985119,-0.985119z"/>
  <path class="fil1 str2" d="M88.3322 78.9517c0,-0.544013 -0.441106,-0.985119 -0.985119,-0.985119 -0.544013,0 -0.985119,0.441106 -0.985119,0.985119 0,0.544013 0.441106,0.985119 0.985119,0.985119 0.544013,0 0.985119,-0.441106 0.985119,-0.985119z"/>
  <path class="fil1 str2" d="M88.3322 79.3312c0,-0.544013 -0.441106,-0.985119 -0.985119,-0.985119 -0.544013,0 -0.985119,0.441106 -0.985119,0.985119 0,0.54391 0.441106,0.985119 0.985119,0.985119 0.544013,0 0.985119,-0.441209 0.985119,-0.985119z"/>
  <path class="fil1 str2" d="M88.3322 49.6865c0,-0.544013 -0.441106,-0.985119 -0.985119,-0.985119 -0.544013,0 -0.985119,0.441106 -0.985119,0.985119 0,0.544013 0.441106,0.985119 0.985119,0.985119 0.544013,0 0.985119,-0.441106 0.985119,-0.985119z"/>
  <path class="fil1 str2" d="M88.3322 68.7065c0,-0.544013 -0.441106,-0.985119 -0.985119,-0.985119 -0.544013,0 -0.985119,0.441106 -0.985119,0.985119 0,0.544013 0.441106,0.985119 0.985119,0.985119 0.544013,0 0.985119,-0.441106 0.985119,-0.985119z"/>
  <path class="fil1 str2" d="M88.3322 72.2383c0,-0.544013 -0.441106,-0.985119 -0.985119,-0.985119 -0.544013,0 -0.985119,0.441106 -0.985119,0.985119 0,0.54391 0.441106,0.985119 0.985119,0.985119 0.544013,0 0.985119,-0.441209 0.985119,-0.985119z"/>
  <path class="fil1 str2" d="M88.3322 57.0529c0,-0.54391 -0.441106,-0.985119 -0.985119,-0.985119 -0.544013,0 -0.985119,0.441209 -0.985119,0.985119 0,0.544013 0.441106,0.985119 0.985119,0.985119 0.544013,0 0.985119,-0.441106 0.985119,-0.985119z"/>
  <path class="fil1 str2" d="M88.3322 77.9557c0,-0.544013 -0.441106,-0.985119 -0.985119,-0.985119 -0.544013,0 -0.985119,0.441106 -0.985119,0.985119 0,0.544013 0.441106,0.985119 0.985119,0.985119 0.544013,0 0.985119,-0.441106 0.985119,-0.985119z"/>
  <path class="fil1 str2" d="M88.3322 69.1771c0,-0.54391 -0.441106,-0.985119 -0.985119,-0.985119 -0.544013,0 -0.985119,0.441209 -0.985119,0.985119 0,0.544013 0.441106,0.985119 0.985119,0.985119 0.544013,0 0.985119,-0.441106 0.985119,-0.985119z"/>
  <path class="fil1 str2" d="M88.3322 76.2737c0,-0.544013 -0.441106,-0.985119 -0.985119,-0.985119 -0.544013,0 -0.985119,0.441106 -0.985119,0.985119 0,0.544013 0.441106,0.985119 0.985119,0.985119 0.544013,0 0.985119,-0.441106 0.985119,-0.985119z"/>
  <path class="fil1 str2" d="M88.3322 79.2071c0,-0.544013 -0.441106,-0.985119 -0.985119,-0.985119 -0.544013,0 -0.985119,0.441106 -0.985119,0.985119 0,0.544013 0.441106,0.985119 0.985119,0.985119 0.544013,0 0.985119,-0.441106 0.985119,-0.985119z"/>
  <path class="fil1 str2" d="M88.3322 79.1342c0,-0.544013 -0.441106,-0.985119 -0.985119,-0.985119 -0.544013,0 -0.985119,0.441106 -0.985119,0.985119 0,0.54391 0.441106,0.985119 0.985119,0.985119 0.544013,0 0.985119,-0.441209 0.985119,-0.985119z"/>
  <path class="fil1 str2" d="M88.3322 62.296c0,-0.544013 -0.441106,-0.985119 -0.985119,-0.985119 -0.544013,0 -0.985119,0.441106 -0.985119,0.985119 0,0.544013 0.441106,0.985119 0.985119,0.985119 0.544013,0 0.985119,-0.441106 0.985119,-0.985119z"/>
  <path class="fil1 str2" d="M88.3322 70.5928c0,-0.544013 -0.441106,-0.985119 -0.985119,-0.985119 -0.544013,0 -0.985119,0.441106 -0.985119,0.985119 0,0.544013 0.441106,0.985119 0.985119,0.985119 0.544013,0 0.985119,-0.441106 0.985119,-0.985119z"/>
  <path class="fil1 str2" d="M88.3322 70.4833c0,-0.544013 -0.441106,-0.985119 -0.985119,-0.985119 -0.544013,0 -0.985119,0.441106 -0.985119,0.985119 0,0.544013 0.441106,0.985119 0.985119,0.985119 0.544013,0 0.985119,-0.441106 0.985119,-0.985119z"/>
  <path class="fil1 str2" d="M88.3322 70.673c0,-0.544013 -0.441106,-0.985119 -0.985119,-0.985119 -0.544013,0 -0.985119,0.441106 -0.985119,0.985119 0,0.544013 0.441106,0.985119 0.985119,0.985119 0.544013,0 0.985119,-0.441106 0.985119,-0.985119z"/>
  <path class="fil1 str2" d="M88.3322 77.2953c0,-0.544013 -0.441106,-0.985119 -0.985119,-0.985119 -0.544013,0 -0.985119,0.441106 -0.985119,0.985119 0,0.54391 0.441106,0.985119 0.985119,0.985119 0.544013,0 0.985119,-0.441209 0.985119,-0.985119z"/>
  <path class="fil1 str2" d="M88.3322 72.023c0,-0.544013 -0.441106,-0.985119 -0.985119,-0.985119 -0.544013,0 -0.985119,0.441106 -0.985119,0.985119 0,0.544013 0.441106,0.985119 0.985119,0.985119 0.544013,0 0.985119,-0.441106 0.985119,-0.985119z"/>
  <path class="fil1 str2" d="M88.3322 59.8514c0,-0.54391 -0.441106,-0.985119 -0.985119,-0.985119 -0.544013,0 -0.985119,0.441209 -0.985119,0.985119 0,0.544013 0.441106,0.985119 0.985119,0.985119 0.544013,0 0.985119,-0.441106 0.985119,-0.985119z"/>
  <path class="fil1 str2" d="M88.3322 56.3999c0,-0.544013 -0.441106,-0.985119 -0.985119,-0.985119 -0.544013,0 -0.985119,0.441106 -0.985119,0.985119 0,0.544013 0.441106,0.985119 0.985119,0.985119 0.544013,0 0.985119,-0.441106 0.985119,-0.985119z"/>
  <path class="fil1 str2" d="M88.3322 78.6561c0,-0.544013 -0.441106,-0.985119 -0.985119,-0.985119 -0.544013,0 -0.985119,0.441106 -0.985119,0.985119 0,0.544013 0.441106,0.985119 0.985119,0.985119 0.544013,0 0.985119,-0.441106 0.985119,-0.985119z"/>
  <path class="fil1 str2" d="M88.3322 71.815c0,-0.544013 -0.441106,-0.985119 -0.985119,-0.985119 -0.544013,0 -0.985119,0.441106 -0.985119,0.985119 0,0.544013 0.441106,0.985119 0.985119,0.985119 0.544013,0 0.985119,-0.441106 0.985119,-0.985119z"/>
  <path class="fil1 str2" d="M88.3322 74.9565c0,-0.544013 -0.441106,-0.985119 -0.985119,-0.985119 -0.544013,0 -0.985119,0.441106 -0.985119,0.985119 0,0.54391 0.441106,0.985119 0.985119,0.985119 0.544013,0 0.985119,-0.441209 0.985119,-0.985119z"/>
  <path class="fil1 str2" d="M88.3322 51.0803c0,-0.544013 -0.441106,-0.985119 -0.985119,-0.985119 -0.544013,0 -0.985119,0.441106 -0.985119,0.985119 0,0.544013 0.441106,0.985119 0.985119,0.985119 0.544013,0 0.985119,-0.441106 0.985119,-0.985119z"/>
  <path class="fil1 str2" d="M88.3322 76.9705c0,-0.544013 -0.441106,-0.985119 -0.985119,-0.985119 -0.544013,0 -0.985119,0.441106 -0.985119,0.985119 0,0.544013 0.441106,0.985119 0.985119,0.985119 0.544013,0 0.985119,-0.441106 0.985119,-0.985119z"/>
  <path class="fil1 str2" d="M88.3322 44.2902c0,-0.544013 -0.441106,-0.985119 -0.985119,-0.985119 -0.544013,0 -0.985119,0.441106 -0.985119,0.985119 0,0.544013 0.441106,0.985119 0.985119,0.985119 0.544013,0 0.985119,-0.441106 0.985119,-0.985119z"/>
  <path class="fil1 str2" d="M88.3322 57.6879c0,-0.544013 -0.441106,-0.985119 -0.985119,-0.985119 -0.544013,0 -0.985119,0.441106 -0.985119,0.985119 0,0.544013 0.441106,0.985119 0.985119,0.985119 0.544013,0 0.985119,-0.441106 0.985119,-0.985119z"/>
  <path class="fil1 str2" d="M88.3322 76.1788c0,-0.544013 -0.441106,-0.985119 -0.985119,-0.985119 -0.544013,0 -0.985119,0.441106 -0.985119,0.985119 0,0.54391 0.441106,0.985119 0.985119,0.985119 0.544013,0 0.985119,-0.441209 0.985119,-0.985119z"/>
  <path class="fil1 str2" d="M88.3322 77.4813c0,-0.544013 -0.441106,-0.985119 -0.985119,-0.985119 -0.544013,0 -0.985119,0.441106 -0.985119,0.985119 0,0.544013 0.441106,0.985119 0.985119,0.985119 0.544013,0 0.985119,-0.441106 0.985119,-0.985119z"/>
  <path class="fil1 str2" d="M88.3322 77.9082c0,-0.544013 -0.441106,-0.985119 -0.985119,-0.985119 -0.544013,0 -0.985119,0.441106 -0.985119,0.985119 0,0.544013 0.441106,0.985119 0.985119,0.985119 0.544013,0 0.985119,-0.441106 0.985119,-0.985119z"/>
  <polygon class="fil0" points="101.971,101.573 121.469,101.573 121.469,92.8564 101.971,92.8564 "/>
  <line class="fil1 str0" x1="101.971" y1="98.1651" x2="121.469" y2= "98.1651" />
  <line class="fil1 str1" x1="111.72" y1="104.795" x2="111.72" y2= "101.573" />
  <line class="fil1 str1" x1="111.72" y1="80.0609" x2="111.72" y2= "92.8564" />
  <line class="fil1 str2" x1="106.845" y1="104.795" x2="116.594" y2= "104.795" />
  <line class="fil1 str2" x1="106.845" y1="80.0609" x2="116.594" y2= "80.0609" />
  <polygon class="fil1 str2" points="101.971,101.573 121.469,101.573 121.469,92.8564 101.971,92.8564 "/>
  <path class="fil1 str2" d="M112.705 77.4375c0,-0.544013 -0.441209,-0.985119 -0.985119,-0.985119 -0.544013,0 -0.985119,0.441106 -0.985119,0.985119 0,0.544013 0.441106,0.985119 0.985119,0.985119 0.54391,0 0.985119,-0.441106 0.985119,-0.985119z"/>
  <path class="fil1 str2" d="M112.705 48.1212c0,-0.54391 -0.441209,-0.985119 -0.985119,-0.985119 -0.544013,0 -0.985119,0.441209 -0.985119,0.985119 0,0.544013 0.441106,0.985119 0.985119,0.985119 0.54391,0 0.985119,-0.441106 0.985119,-0.985119z"/>
  <path class="fil1 str2" d="M112.705 78.5978c0,-0.544013 -0.441209,-0.985119 -0.985119,-0.985119 -0.544013,0 -0.985119,0.441106 -0.985119,0.985119 0,0.544013 0.441106,0.985119 0.985119,0.985119 0.54391,0 0.985119,-0.441106 0.985119,-0.985119z"/>
  <path class="fil1 str2" d="M112.705 26.4887c0,-0.54391 -0.441209,-0.985119 -0.985119,-0.985119 -0.544013,0 -0.985119,0.441209 -0.985119,0.985119 0,0.544013 0.441106,0.985119 0.985119,0.985119 0.54391,0 0.985119,-0.441106 0.985119,-0.985119z"/>
  <path class="fil1 str2" d="M112.705 75.3578c0,-0.544013 -0.441209,-0.985119 -0.985119,-0.985119 -0.544013,0 -0.985119,0.441106 -0.985119,0.985119 0,0.544013 0.441106,0.985119 0.985119,0.985119 0.54391,0 0.985119,-0.441106 0.985119,-0.985119z"/>
  <path class="fil1 str2" d="M112.705 75.5038c0,-0.544013 -0.441209,-0.985119 -0.985119,-0.985119 -0.544013,0 -0.985119,0.441106 -0.985119,0.985119 0,0.544013 0.441106,0.985119 0.985119,0.985119 0.54391,0 0.985119,-0.441106 0.985119,-0.985119z"/>
  <path class="fil1 str2" d="M112.705 78.0323c0,-0.544013 -0.441209,-0.985119 -0.985119,-0.985119 -0.544013,0 -0.985119,0.441106 -0.985119,0.985119 0,0.544013 0.441106,0.985119 0.985119,0.985119 0.54391,0 0.985119,-0.441106 0.985119,-0.985119z"/>
  <path class="fil1 str2" d="M112.705 77.2223c0,-0.544013 -0.441209,-0.985119 -0.985119,-0.985119 -0.544013,0 -0.985119,0.441106 -0.985119,0.985119 0,0.544013 0.441106,0.985119 0.985119,0.985119 0.54391,0 0.985119,-0.441106 0.985119,-0.985119z"/>
  <path class="fil1 str2" d="M112.705 39.3609c0,-0.54391 -0.441209,-0.985119 -0.985119,-0.985119 -0.544013,0 -0.985119,0.441209 -0.985119,0.985119 0,0.544013 0.441106,0.985119 0.985119,0.985119 0.54391,0 0.985119,-0.441106 0.985119,-0.985119z"/>
  <path class="fil1 str2" d="M112.705 79.1706c0,-0.544013 -0.441209,-0.985119 -0.985119,-0.985119 -0.544013,0 -0.985119,0.441106 -0.985119,0.985119 0,0.544013 0.441106,0.985119 0.985119,0.985119 0.54391,0 0.985119,-0.441106 0.985119,-0.985119z"/>
  <path class="fil1 str2" d="M112.705 47.9752c0,-0.544013 -0.441209,-0.985119 -0.985119,-0.985119 -0.544013,0 -0.985119,0.441106 -0.985119,0.985119 0,0.544013 0.441106,0.985119 0.985119,0.985119 0.54391,0 0.985119,-0.441106 0.985119,-0.985119z"/>
  <path class="fil1 str2" d="M112.705 77.8972c0,-0.544013 -0.441209,-0.985119 -0.985119,-0.985119 -0.544013,0 -0.985119,0.441106 -0.985119,0.985119 0,0.544013 0.441106,0.985119 0.985119,0.985119 0.54391,0 0.985119,-0.441106 0.985119,-0.985119z"/>
  <path class="fil1 str2" d="M112.705 73.5371c0,-0.54391 -0.441209,-0.985119 -0.985119,-0.985119 -0.544013,0 -0.985119,0.441209 -0.985119,0.985119 0,0.544013 0.441106,0.985119 0.985119,0.985119 0.54391,0 0.985119,-0.441106 0.985119,-0.985119z"/>
  <path class="fil1 str2" d="M112.705 76.6713c0,-0.544013 -0.441209,-0.985119 -0.985119,-0.985119 -0.544013,0 -0.985119,0.441106 -0.985119,0.985119 0,0.544013 0.441106,0.985119 0.985119,0.985119 0.54391,0 0.985119,-0.441106 0.985119,-0.985119z"/>
  <path class="fil1 str2" d="M112.705 76.3248c0,-0.544013 -0.441209,-0.985119 -0.985119,-0.985119 -0.544013,0 -0.985119,0.441106 -0.985119,0.985119 0,0.544013 0.441106,0.985119 0.985119,0.985119 0.54391,0 0.985119,-0.441106 0.985119,-0.985119z"/>
  <path class="fil1 str2" d="M112.705 64.1751c0,-0.544013 -0.441209,-0.985119 -0.985119,-0.985119 -0.544013,0 -0.985119,0.441106 -0.985119,0.985119 0,0.544013 0.441106,0.985119 0.985119,0.985119 0.54391,0 0.985119,-0.441106 0.985119,-0.985119z"/>
  <path class="fil1 str2" d="M112.705 79.7215c0,-0.544013 -0.441209,-0.985119 -0.985119,-0.985119 -0.544013,0 -0.985119,0.441106 -0.985119,0.985119 0,0.544013 0.441106,0.985119 0.985119,0.985119 0.54391,0 0.985119,-0.441106 0.985119,-0.985119z"/>
  <path class="fil1 str2" d="M112.705 70.3301c0,-0.544013 -0.441209,-0.985119 -0.985119,-0.985119 -0.544013,0 -0.985119,0.441106 -0.985119,0.985119 0,0.544013 0.441106,0.985119 0.985119,0.985119 0.54391,0 0.985119,-0.441106 0.985119,-0.985119z"/>
  <path class="fil1 str2" d="M112.705 72.231c0,-0.544013 -0.441209,-0.985119 -0.985119,-0.985119 -0.544013,0 -0.985119,0.441106 -0.985119,0.985119 0,0.544013 0.441106,0.985119 0.985119,0.985119 0.54391,0 0.985119,-0.441106 0.985119,-0.985119z"/>
  <path class="fil1 str2" d="M112.705 77.4375c0,-0.544013 -0.441209,-0.985119 -0.985119,-0.985119 -0.544013,0 -0.985119,0.441106 -0.985119,0.985119 0,0.544013 0.441106,0.985119 0.985119,0.985119 0.54391,0 0.985119,-0.441106 0.985119,-0.985119z"/>
  <path class="fil1 str2" d="M112.705 39.5944c0,-0.544013 -0.441209,-0.985119 -0.985119,-0.985119 -0.544013,0 -0.985119,0.441106 -0.985119,0.985119 0,0.544013 0.441106,0.985119 0.985119,0.985119 0.54391,0 0.985119,-0.441106 0.985119,-0.985119z"/>
  <path class="fil1 str2" d="M112.705 71.9865c0,-0.544013 -0.441209,-0.985119 -0.985119,-0.985119 -0.544013,0 -0.985119,0.441106 -0.985119,0.985119 0,0.544013 0.441106,0.985119 0.985119,0.985119 0.54391,0 0.985119,-0.441106 0.985119,-0.985119z"/>
  <polygon class="fil0" points="126.343,103.448 145.841,103.448 145.841,94.0168 126.343,94.0168 "/>
  <line class="fil1 str0" x1="126.343" y1="100.245" x2="145.841" y2= "100.245" />
  <line class="fil1 str1" x1="136.092" y1="105.499" x2="136.092" y2= "103.448" />
  <line class="fil1 str1" x1="136.092" y1="80.9328" x2="136.092" y2= "94.0168" />
  <line class="fil1 str2" x1="131.218" y1="105.499" x2="140.967" y2= "105.499" />
  <line class="fil1 str2" x1="131.218" y1="80.9328" x2="140.967" y2= "80.9328" />
  <polygon class="fil1 str2" points="126.343,103.448 145.841,103.448 145.841,94.0168 126.343,94.0168 "/>
  <path class="fil1 str2" d="M137.077 51.4123c0,-0.544013 -0.441106,-0.985119 -0.985119,-0.985119 -0.544013,0 -0.985119,0.441106 -0.985119,0.985119 0,0.544013 0.441106,0.985119 0.985119,0.985119 0.544013,0 0.985119,-0.441106 0.985119,-0.985119z"/>
  <path class="fil1 str2" d="M137.077 51.4123c0,-0.544013 -0.441106,-0.985119 -0.985119,-0.985119 -0.544013,0 -0.985119,0.441106 -0.985119,0.985119 0,0.544013 0.441106,0.985119 0.985119,0.985119 0.544013,0 0.985119,-0.441106 0.985119,-0.985119z"/>
  <path class="fil1 str2" d="M137.077 51.4123c0,-0.544013 -0.441106,-0.985119 -0.985119,-0.985119 -0.544013,0 -0.985119,0.441106 -0.985119,0.985119 0,0.544013 0.441106,0.985119 0.985119,0.985119 0.544013,0 0.985119,-0.441106 0.985119,-0.985119z"/>
  <path class="fil1 str2" d="M137.077 79.1815c0,-0.544013 -0.441106,-0.985119 -0.985119,-0.985119 -0.544013,0 -0.985119,0.441106 -0.985119,0.985119 0,0.544013 0.441106,0.985119 0.985119,0.985119 0.544013,0 0.985119,-0.441106 0.985119,-0.985119z"/>
  <path class="fil1 str2" d="M137.077 60.7818c0,-0.544013 -0.441106,-0.985119 -0.985119,-0.985119 -0.544013,0 -0.985119,0.441106 -0.985119,0.985119 0,0.544013 0.441106,0.985119 0.985119,0.985119 0.544013,0 0.985119,-0.441106 0.985119,-0.985119z"/>
  <path class="fil1 str2" d="M137.077 77.339c0,-0.544013 -0.441106,-0.985119 -0.985119,-0.985119 -0.544013,0 -0.985119,0.441106 -0.985119,0.985119 0,0.544013 0.441106,0.985119 0.985119,0.985119 0.544013,0 0.985119,-0.441106 0.985119,-0.985119z"/>
  <path class="fil1 str2" d="M137.077 51.4123c0,-0.544013 -0.441106,-0.985119 -0.985119,-0.985119 -0.544013,0 -0.985119,0.441106 -0.985119,0.985119 0,0.544013 0.441106,0.985119 0.985119,0.985119 0.544013,0 0.985119,-0.441106 0.985119,-0.985119z"/>
  <line class="fil1 str2" x1="38.6021" y1="110.027" x2="136.092" y2= "110.027" />
  <line class="fil1 str2" x1="38.6021" y1="110.027" x2="38.6021" y2= "112.654" />
  <line class="fil1 str2" x1="62.9746" y1="110.027" x2="62.9746" y2= "112.654" />
  <line class="fil1 str2" x1="87.3471" y1="110.027" x2="87.3471" y2= "112.654" />
  <line class="fil1 str2" x1="111.72" y1="110.027" x2="111.72" y2= "112.654" />
  <line class="fil1 str2" x1="136.092" y1="110.027" x2="136.092" y2= "112.654" />
  <path class="fil2" d="M39.1536 119.484l-0.512676 0 0 -3.26915c-0.123592,0.117801 -0.285142,0.235498 -0.485578,0.353195 -0.201368,0.117801 -0.381326,0.206332 -0.540911,0.264663l0 -0.495197c0.287003,-0.135279 0.538015,-0.29869 0.753034,-0.490439 0.214089,-0.192577 0.366847,-0.378431 0.456309,-0.559424l0.329821 0 0 4.19635z"/>
  <path id="1" class="fil2" d="M64.2976 118.991l0 0.493335 -2.76226 0c-0.00382671,-0.123592 0.0156171,-0.24222 0.0593657,-0.356091 0.0700184,-0.18875 0.182958,-0.373673 0.337578,-0.556528 0.155757,-0.181924 0.379465,-0.393117 0.671329,-0.632441 0.454448,-0.372639 0.761825,-0.667399 0.92141,-0.885418 0.159584,-0.216881 0.239324,-0.423213 0.239324,-0.616824 0,-0.203333 -0.0729143,-0.374604 -0.217916,-0.514641 -0.145932,-0.139106 -0.335613,-0.209228 -0.569145,-0.209228 -0.247185,0 -0.444622,0.0739486 -0.592519,0.222777 -0.148931,0.147897 -0.223811,0.353195 -0.225776,0.614963l-0.527362 -0.0535739c0.0360952,-0.393944 0.172305,-0.693669 0.4077,-0.899897 0.235498,-0.206332 0.552598,-0.309446 0.949644,-0.309446 0.400874,0 0.717973,0.111905 0.951506,0.333751 0.234464,0.222777 0.35123,0.498093 0.35123,0.826983 0,0.167341 -0.0340267,0.331786 -0.103114,0.493335 -0.0681568,0.161446 -0.181924,0.331786 -0.340577,0.50978 -0.15855,0.179028 -0.422179,0.424248 -0.790991,0.735556 -0.307481,0.258768 -0.504919,0.43397 -0.592519,0.526328 -0.0876006,0.0915308 -0.159584,0.183889 -0.216985,0.277281l2.05008 0z"/>
  <path id="12" class="fil2" d="M85.9827 118.381l0.512676 -0.0680534c0.0593657,0.29083 0.159584,0.500058 0.300655,0.628511 0.142105,0.12835 0.314307,0.192577 0.51764,0.192577 0.24129,0 0.445553,-0.0836705 0.611963,-0.251011 0.165376,-0.167341 0.249046,-0.374604 0.249046,-0.621685 0,-0.235498 -0.0768445,-0.430039 -0.230533,-0.582797 -0.154723,-0.152758 -0.350299,-0.229603 -0.587658,-0.229603 -0.0973225,0 -0.217916,0.0194438 -0.361986,0.0574006l0.0574006 -0.450517c0.0341301,0.00393013 0.0613308,0.0058952 0.0827397,0.0058952 0.217916,0 0.414422,-0.0574006 0.589624,-0.171271 0.175098,-0.11387 0.262698,-0.289899 0.262698,-0.527362 0,-0.187716 -0.0642267,-0.344404 -0.191646,-0.466962 -0.127523,-0.123592 -0.291968,-0.185854 -0.493335,-0.185854 -0.199506,0 -0.365813,0.0631924 -0.498196,0.187819 -0.133211,0.125454 -0.218846,0.314204 -0.256803,0.565215l-0.512779 -0.0914273c0.0622616,-0.344404 0.205298,-0.611032 0.427144,-0.799782 0.222777,-0.18875 0.499127,-0.284107 0.829982,-0.284107 0.227637,0 0.437796,0.0496438 0.629442,0.146966 0.191646,0.0982533 0.338612,0.231568 0.440796,0.40077 0.101149,0.169306 0.152758,0.348334 0.152758,0.539049 0,0.180062 -0.048713,0.344404 -0.146036,0.493335 -0.0972191,0.147897 -0.240255,0.265594 -0.430039,0.353195 0.247185,0.0563664 0.43883,0.175098 0.576075,0.355057 0.13621,0.179028 0.204264,0.40377 0.204264,0.673294 0,0.364882 -0.13228,0.674225 -0.398909,0.928236 -0.265594,0.253907 -0.602241,0.380396 -1.00891,0.380396 -0.366847,0 -0.671329,-0.10901 -0.913653,-0.327856 -0.24222,-0.218019 -0.380396,-0.501092 -0.414422,-0.849426z"/>
  <path id="123" class="fil2" d="M112.003 119.484l0 -1.00022 -1.81262 0 0 -0.470892 1.90694 -2.70766 0.419387 0 0 2.70766 0.564284 0 0 0.470892 -0.564284 0 0 1.00022 -0.51371 0zm0 -1.47111l0 -1.88357 -1.3077 1.88357 1.3077 0z"/>
  <path id="1234" class="fil2" d="M134.738 118.389l0.539049 -0.0457137c0.0399219,0.262698 0.13228,0.459205 0.277281,0.591485 0.145932,0.132383 0.321133,0.198472 0.526431,0.198472 0.247081,0 0.456309,-0.0933924 0.626546,-0.279246 0.171271,-0.186785 0.256803,-0.433866 0.256803,-0.741347 0,-0.292898 -0.0817054,-0.523432 -0.24615,-0.692738 -0.164342,-0.169306 -0.379465,-0.253907 -0.64599,-0.253907 -0.165376,0 -0.314307,0.0379568 -0.447518,0.112836 -0.133314,0.0748794 -0.237463,0.172202 -0.313376,0.291864l-0.481545 -0.0622616 0.4047 -2.14627 2.07821 0 0 0.490336 -1.66762 0 -0.225672 1.12278c0.251011,-0.175098 0.514641,-0.262698 0.789957,-0.262698 0.364882,0 0.672363,0.126488 0.923375,0.379465 0.251011,0.252977 0.376569,0.577937 0.376569,0.97488 0,0.378431 -0.110975,0.705356 -0.330855,0.980775 -0.26849,0.337578 -0.634406,0.506884 -1.09744,0.506884 -0.380499,0 -0.690876,-0.106114 -0.931131,-0.319168 -0.240359,-0.213055 -0.3775,-0.495197 -0.41163,-0.846427z"/>
  <line class="fil1 str2" x1="21.5412" y1="106.75" x2="21.5412" y2= "24.8177" />
  <line class="fil1 str2" x1="21.5412" y1="106.75" x2="18.9142" y2= "106.75" />
  <line class="fil1 str2" x1="21.5412" y1="86.2672" x2="18.9142" y2= "86.2672" />
  <line class="fil1 str2" x1="21.5412" y1="65.784" x2="18.9142" y2= "65.784" />
  <line class="fil1 str2" x1="21.5412" y1="45.3009" x2="18.9142" y2= "45.3009" />
  <line class="fil1 str2" x1="21.5412" y1="24.8177" x2="18.9142" y2= "24.8177" />
  <path class="fil2" d="M13.1759 108.131c-0.494266,0 -0.89214,-0.050678 -1.1928,-0.152758 -0.301586,-0.101253 -0.534188,-0.252977 -0.697599,-0.453413 -0.163514,-0.200437 -0.244185,-0.452483 -0.244185,-0.756034 0,-0.224742 0.0446794,-0.421248 0.135176,-0.590554 0.0895657,-0.169306 0.219881,-0.308412 0.390221,-0.419387 0.170237,-0.10994 0.3775,-0.196507 0.621685,-0.258768 0.244185,-0.0631924 0.573076,-0.0943232 0.987498,-0.0943232 0.490439,0 0.885418,0.0505746 1.187,0.150793 0.301586,0.101149 0.534188,0.251942 0.698633,0.452379 0.164445,0.200437 0.24615,0.453413 0.24615,0.75986 0,0.402839 -0.14407,0.719008 -0.433039,0.94861 -0.3473,0.27542 -0.91448,0.413595 -1.69875,0.413595zm0 -0.527362c0.685912,0 1.14222,-0.0807746 1.36996,-0.24129 0.226707,-0.160515 0.340474,-0.358056 0.340474,-0.593554 0,-0.236429 -0.114801,-0.433866 -0.342439,-0.594484 -0.227637,-0.160515 -0.683947,-0.24129 -1.368,-0.24129 -0.687877,0 -1.14512,0.0807746 -1.37089,0.24129 -0.226707,0.160618 -0.339543,0.360021 -0.339543,0.599345 0,0.236429 0.100218,0.424248 0.299724,0.565319 0.253907,0.176132 0.724799,0.264663 1.41071,0.264663z"/>
  <path id="1" class="fil2" d="M15.2366 88.9414l0 0.512676 -3.26915 0c0.117801,0.123592 0.235498,0.285142 0.353195,0.485578 0.117801,0.201368 0.206332,0.381326 0.264663,0.540911l-0.495197 0c-0.135279,-0.287003 -0.29869,-0.538015 -0.490439,-0.753034 -0.192577,-0.214089 -0.378431,-0.366847 -0.558389,-0.456309l0 -0.329821 4.19531 0z"/>
  <path id="12" class="fil2" d="M13.1759 87.627c-0.494266,0 -0.89214,-0.050678 -1.1928,-0.152758 -0.301586,-0.101253 -0.534188,-0.252977 -0.697599,-0.453413 -0.163514,-0.200437 -0.244185,-0.452483 -0.244185,-0.756034 0,-0.224742 0.0446794,-0.421248 0.135176,-0.590554 0.0895657,-0.169306 0.219881,-0.308412 0.390221,-0.419387 0.170237,-0.10994 0.3775,-0.196507 0.621685,-0.258768 0.244185,-0.0631924 0.573076,-0.0943232 0.987498,-0.0943232 0.490439,0 0.885418,0.0505746 1.187,0.150793 0.301586,0.101149 0.534188,0.251942 0.698633,0.452379 0.164445,0.200437 0.24615,0.453413 0.24615,0.75986 0,0.402839 -0.14407,0.719008 -0.433039,0.94861 -0.3473,0.27542 -0.91448,0.413595 -1.69875,0.413595zm0 -0.527362c0.685912,0 1.14222,-0.0807746 1.36996,-0.24129 0.226707,-0.160515 0.340474,-0.358056 0.340474,-0.593554 0,-0.236429 -0.114801,-0.433866 -0.342439,-0.594484 -0.227637,-0.160515 -0.683947,-0.24129 -1.368,-0.24129 -0.687877,0 -1.14512,0.0807746 -1.37089,0.24129 -0.226707,0.160618 -0.339543,0.360021 -0.339543,0.599345 0,0.236429 0.100218,0.424248 0.299724,0.565319 0.253907,0.176132 0.724799,0.264663 1.41071,0.264663z"/>
  <path id="123" class="fil2" d="M13.1759 84.3803c-0.494266,0 -0.89214,-0.050678 -1.1928,-0.152758 -0.301586,-0.101253 -0.534188,-0.252977 -0.697599,-0.453413 -0.163514,-0.200437 -0.244185,-0.452483 -0.244185,-0.756034 0,-0.224742 0.0446794,-0.421248 0.135176,-0.590554 0.0895657,-0.169306 0.219881,-0.308412 0.390221,-0.419387 0.170237,-0.10994 0.3775,-0.196507 0.621685,-0.258768 0.244185,-0.0631924 0.573076,-0.0943232 0.987498,-0.0943232 0.490439,0 0.885418,0.0505746 1.187,0.150793 0.301586,0.101149 0.534188,0.251942 0.698633,0.452379 0.164445,0.200437 0.24615,0.453413 0.24615,0.75986 0,0.402839 -0.14407,0.719008 -0.433039,0.94861 -0.3473,0.27542 -0.91448,0.413595 -1.69875,0.413595zm0 -0.527362c0.685912,0 1.14222,-0.0807746 1.36996,-0.24129 0.226707,-0.160515 0.340474,-0.358056 0.340474,-0.593554 0,-0.236429 -0.114801,-0.433866 -0.342439,-0.594484 -0.227637,-0.160515 -0.683947,-0.24129 -1.368,-0.24129 -0.687877,0 -1.14512,0.0807746 -1.37089,0.24129 -0.226707,0.160618 -0.339543,0.360021 -0.339543,0.599345 0,0.236429 0.100218,0.424248 0.299724,0.565319 0.253907,0.176132 0.724799,0.264663 1.41071,0.264663z"/>
  <path id="1234" class="fil2" d="M14.7433 67.6951l0.493335 0 0 2.76226c-0.123592,0.00382671 -0.24222,-0.0156171 -0.356091,-0.0593657 -0.18875,-0.0700184 -0.373673,-0.182958 -0.555597,-0.337578 -0.182855,-0.155757 -0.394048,-0.379465 -0.633372,-0.671329 -0.372639,-0.454448 -0.667399,-0.761825 -0.885418,-0.92141 -0.216881,-0.159584 -0.423213,-0.239324 -0.616824,-0.239324 -0.203333,0 -0.374604,0.0729143 -0.514641,0.217916 -0.139106,0.145932 -0.209228,0.335613 -0.209228,0.569145 0,0.247185 0.0739486,0.444622 0.222777,0.592519 0.147897,0.148931 0.353195,0.223811 0.614963,0.225776l-0.0535739 0.527362c-0.393944,-0.0360952 -0.693669,-0.172305 -0.899897,-0.4077 -0.206332,-0.235498 -0.308412,-0.552598 -0.308412,-0.949644 0,-0.400874 0.110871,-0.717973 0.332717,-0.951506 0.222777,-0.234464 0.498093,-0.35123 0.826983,-0.35123 0.167341,0 0.331786,0.0340267 0.493335,0.103114 0.161446,0.0681568 0.331786,0.181924 0.50978,0.340577 0.179028,0.15855 0.424248,0.422179 0.735556,0.790991 0.258768,0.307481 0.43397,0.504919 0.526328,0.592519 0.0915308,0.0876006 0.183889,0.159584 0.277281,0.216985l0 -2.05008z"/>
  <path id="12345" class="fil2" d="M13.1759 67.1455c-0.494266,0 -0.89214,-0.050678 -1.1928,-0.152758 -0.301586,-0.101253 -0.534188,-0.252977 -0.697599,-0.453413 -0.163514,-0.200437 -0.244185,-0.452483 -0.244185,-0.756034 0,-0.224742 0.0446794,-0.421248 0.135176,-0.590554 0.0895657,-0.169306 0.219881,-0.308412 0.390221,-0.419387 0.170237,-0.10994 0.3775,-0.196507 0.621685,-0.258768 0.244185,-0.0631924 0.573076,-0.0943232 0.987498,-0.0943232 0.490439,0 0.885418,0.0505746 1.187,0.150793 0.301586,0.101149 0.534188,0.251942 0.698633,0.452379 0.164445,0.200437 0.24615,0.453413 0.24615,0.75986 0,0.402839 -0.14407,0.719008 -0.433039,0.94861 -0.3473,0.27542 -0.91448,0.413595 -1.69875,0.413595zm0 -0.527362c0.685912,0 1.14222,-0.0807746 1.36996,-0.24129 0.226707,-0.160515 0.340474,-0.358056 0.340474,-0.593554 0,-0.236429 -0.114801,-0.433866 -0.342439,-0.594484 -0.227637,-0.160515 -0.683947,-0.24129 -1.368,-0.24129 -0.687877,0 -1.14512,0.0807746 -1.37089,0.24129 -0.226707,0.160618 -0.339543,0.360021 -0.339543,0.599345 0,0.236429 0.100218,0.424248 0.299724,0.565319 0.253907,0.176132 0.724799,0.264663 1.41071,0.264663z"/>
  <path id="123456" class="fil2" d="M13.1759 63.8988c-0.494266,0 -0.89214,-0.050678 -1.1928,-0.152758 -0.301586,-0.101253 -0.534188,-0.252977 -0.697599,-0.453413 -0.163514,-0.200437 -0.244185,-0.452483 -0.244185,-0.756034 0,-0.224742 0.0446794,-0.421248 0.135176,-0.590554 0.0895657,-0.169306 0.219881,-0.308412 0.390221,-0.419387 0.170237,-0.10994 0.3775,-0.196507 0.621685,-0.258768 0.244185,-0.0631924 0.573076,-0.0943232 0.987498,-0.0943232 0.490439,0 0.885418,0.0505746 1.187,0.150793 0.301586,0.101149 0.534188,0.251942 0.698633,0.452379 0.164445,0.200437 0.24615,0.453413 0.24615,0.75986 0,0.402839 -0.14407,0.719008 -0.433039,0.94861 -0.3473,0.27542 -0.91448,0.413595 -1.69875,0.413595zm0 -0.527362c0.685912,0 1.14222,-0.0807746 1.36996,-0.24129 0.226707,-0.160515 0.340474,-0.358056 0.340474,-0.593554 0,-0.236429 -0.114801,-0.433866 -0.342439,-0.594484 -0.227637,-0.160515 -0.683947,-0.24129 -1.368,-0.24129 -0.687877,0 -1.14512,0.0807746 -1.37089,0.24129 -0.226707,0.160618 -0.339543,0.360021 -0.339543,0.599345 0,0.236429 0.100218,0.424248 0.299724,0.565319 0.253907,0.176132 0.724799,0.264663 1.41071,0.264663z"/>
  <path id="1234567" class="fil2" d="M14.1333 49.9077l-0.0680534 -0.512676c0.29083,-0.0593657 0.500058,-0.159584 0.628511,-0.300655 0.12835,-0.142105 0.192577,-0.314307 0.192577,-0.51764 0,-0.24129 -0.0836705,-0.445553 -0.251011,-0.611963 -0.167341,-0.165376 -0.374604,-0.249046 -0.621685,-0.249046 -0.235498,0 -0.430039,0.0768445 -0.582797,0.230533 -0.152758,0.154723 -0.229603,0.350299 -0.229603,0.587658 0,0.0973225 0.0194438,0.217916 0.0574006,0.361986l-0.450517 -0.0574006c0.00393013,-0.0341301 0.0058952,-0.0613308 0.0058952,-0.0827397 0,-0.217916 -0.0574006,-0.414422 -0.171271,-0.589624 -0.11387,-0.175098 -0.289899,-0.262698 -0.527362,-0.262698 -0.187716,0 -0.344404,0.0642267 -0.466962,0.191646 -0.123592,0.127523 -0.185854,0.291968 -0.185854,0.493335 0,0.199506 0.0631924,0.365813 0.187819,0.498196 0.125454,0.133211 0.314204,0.218846 0.565215,0.256803l-0.0914273 0.512779c-0.344404,-0.0622616 -0.611032,-0.205298 -0.799782,-0.427144 -0.18875,-0.222777 -0.283073,-0.499127 -0.283073,-0.829982 0,-0.227637 0.0486096,-0.437796 0.145932,-0.629442 0.0982533,-0.191646 0.231568,-0.338612 0.40077,-0.440796 0.169306,-0.101149 0.348334,-0.152758 0.539049,-0.152758 0.180062,0 0.344404,0.048713 0.493335,0.146036 0.147897,0.0972191 0.265594,0.240255 0.353195,0.430039 0.0563664,-0.247185 0.175098,-0.43883 0.355057,-0.576075 0.179028,-0.13621 0.40377,-0.204264 0.673294,-0.204264 0.364882,0 0.674225,0.13228 0.928236,0.398909 0.253907,0.265594 0.380396,0.602241 0.380396,1.00891 0,0.366847 -0.10901,0.671329 -0.327856,0.913653 -0.218019,0.24222 -0.501092,0.380396 -0.849426,0.414422z"/>
  <path id="12345678" class="fil2" d="M13.1759 46.664c-0.494266,0 -0.89214,-0.050678 -1.1928,-0.152758 -0.301586,-0.101253 -0.534188,-0.252977 -0.697599,-0.453413 -0.163514,-0.200437 -0.244185,-0.452483 -0.244185,-0.756034 0,-0.224742 0.0446794,-0.421248 0.135176,-0.590554 0.0895657,-0.169306 0.219881,-0.308412 0.390221,-0.419387 0.170237,-0.10994 0.3775,-0.196507 0.621685,-0.258768 0.244185,-0.0631924 0.573076,-0.0943232 0.987498,-0.0943232 0.490439,0 0.885418,0.0505746 1.187,0.150793 0.301586,0.101149 0.534188,0.251942 0.698633,0.452379 0.164445,0.200437 0.24615,0.453413 0.24615,0.75986 0,0.402839 -0.14407,0.719008 -0.433039,0.94861 -0.3473,0.27542 -0.91448,0.413595 -1.69875,0.413595zm0 -0.527362c0.685912,0 1.14222,-0.0807746 1.36996,-0.24129 0.226707,-0.160515 0.340474,-0.358056 0.340474,-0.593554 0,-0.236429 -0.114801,-0.433866 -0.342439,-0.594484 -0.227637,-0.160515 -0.683947,-0.24129 -1.368,-0.24129 -0.687877,0 -1.14512,0.0807746 -1.37089,0.24129 -0.226707,0.160618 -0.339543,0.360021 -0.339543,0.599345 0,0.236429 0.100218,0.424248 0.299724,0.565319 0.253907,0.176132 0.724799,0.264663 1.41071,0.264663z"/>
  <path id="123456789" class="fil2" d="M13.1759 43.4173c-0.494266,0 -0.89214,-0.050678 -1.1928,-0.152758 -0.301586,-0.101253 -0.534188,-0.252977 -0.697599,-0.453413 -0.163514,-0.200437 -0.244185,-0.452483 -0.244185,-0.756034 0,-0.224742 0.0446794,-0.421248 0.135176,-0.590554 0.0895657,-0.169306 0.219881,-0.308412 0.390221,-0.419387 0.170237,-0.10994 0.3775,-0.196507 0.621685,-0.258768 0.244185,-0.0631924 0.573076,-0.0943232 0.987498,-0.0943232 0.490439,0 0.885418,0.0505746 1.187,0.150793 0.301586,0.101149 0.534188,0.251942 0.698633,0.452379 0.164445,0.200437 0.24615,0.453413 0.24615,0.75986 0,0.402839 -0.14407,0.719008 -0.433039,0.94861 -0.3473,0.27542 -0.91448,0.413595 -1.69875,0.413595zm0 -0.527362c0.685912,0 1.14222,-0.0807746 1.36996,-0.24129 0.226707,-0.160515 0.340474,-0.358056 0.340474,-0.593554 0,-0.236429 -0.114801,-0.433866 -0.342439,-0.594484 -0.227637,-0.160515 -0.683947,-0.24129 -1.368,-0.24129 -0.687877,0 -1.14512,0.0807746 -1.37089,0.24129 -0.226707,0.160618 -0.339543,0.360021 -0.339543,0.599345 0,0.236429 0.100218,0.424248 0.299724,0.565319 0.253907,0.176132 0.724799,0.264663 1.41071,0.264663z"/>
  <path id="12345678910" class="fil2" d="M15.2366 27.7851l-1.00022 0 0 1.81262 -0.470892 0 -2.70766 -1.90694 0 -0.419387 2.70766 0 0 -0.564284 0.470892 0 0 0.564284 1.00022 0 0 0.51371zm-1.47111 0l-1.88357 0 1.88357 1.3077 0 -1.3077z"/>
  <path id="1234567891011" class="fil2" d="M13.1759 26.1828c-0.494266,0 -0.89214,-0.050678 -1.1928,-0.152758 -0.301586,-0.101253 -0.534188,-0.252977 -0.697599,-0.453413 -0.163514,-0.200437 -0.244185,-0.452483 -0.244185,-0.756034 0,-0.224742 0.0446794,-0.421248 0.135176,-0.590554 0.0895657,-0.169306 0.219881,-0.308412 0.390221,-0.419387 0.170237,-0.10994 0.3775,-0.196507 0.621685,-0.258768 0.244185,-0.0631924 0.573076,-0.0943232 0.987498,-0.0943232 0.490439,0 0.885418,0.0505746 1.187,0.150793 0.301586,0.101149 0.534188,0.251942 0.698633,0.452379 0.164445,0.200437 0.24615,0.453413 0.24615,0.75986 0,0.402839 -0.14407,0.719008 -0.433039,0.94861 -0.3473,0.27542 -0.91448,0.413595 -1.69875,0.413595zm0 -0.527362c0.685912,0 1.14222,-0.0807746 1.36996,-0.24129 0.226707,-0.160515 0.340474,-0.358056 0.340474,-0.593554 0,-0.236429 -0.114801,-0.433866 -0.342439,-0.594484 -0.227637,-0.160515 -0.683947,-0.24129 -1.368,-0.24129 -0.687877,0 -1.14512,0.0807746 -1.37089,0.24129 -0.226707,0.160618 -0.339543,0.360021 -0.339543,0.599345 0,0.236429 0.100218,0.424248 0.299724,0.565319 0.253907,0.176132 0.724799,0.264663 1.41071,0.264663z"/>
  <path id="123456789101112" class="fil2" d="M13.1759 22.9361c-0.494266,0 -0.89214,-0.050678 -1.1928,-0.152758 -0.301586,-0.101253 -0.534188,-0.252977 -0.697599,-0.453413 -0.163514,-0.200437 -0.244185,-0.452483 -0.244185,-0.756034 0,-0.224742 0.0446794,-0.421248 0.135176,-0.590554 0.0895657,-0.169306 0.219881,-0.308412 0.390221,-0.419387 0.170237,-0.10994 0.3775,-0.196507 0.621685,-0.258768 0.244185,-0.0631924 0.573076,-0.0943232 0.987498,-0.0943232 0.490439,0 0.885418,0.0505746 1.187,0.150793 0.301586,0.101149 0.534188,0.251942 0.698633,0.452379 0.164445,0.200437 0.24615,0.453413 0.24615,0.75986 0,0.402839 -0.14407,0.719008 -0.433039,0.94861 -0.3473,0.27542 -0.91448,0.413595 -1.69875,0.413595zm0 -0.527362c0.685912,0 1.14222,-0.0807746 1.36996,-0.24129 0.226707,-0.160515 0.340474,-0.358056 0.340474,-0.593554 0,-0.236429 -0.114801,-0.433866 -0.342439,-0.594484 -0.227637,-0.160515 -0.683947,-0.24129 -1.368,-0.24129 -0.687877,0 -1.14512,0.0807746 -1.37089,0.24129 -0.226707,0.160618 -0.339543,0.360021 -0.339543,0.599345 0,0.236429 0.100218,0.424248 0.299724,0.565319 0.253907,0.176132 0.724799,0.264663 1.41071,0.264663z"/>
  <path class="fil2" d="M38.9622 11.6449l0.97519 -0.095978c0.0577109,0.328166 0.176753,0.568525 0.357022,0.722214 0.179028,0.152448 0.420524,0.229913 0.725523,0.229913 0.322374,0 0.566146,-0.0682602 0.72904,-0.205711 0.164135,-0.136314 0.24615,-0.295794 0.24615,-0.478339 0,-0.117801 -0.0346472,-0.217192 -0.103942,-0.299207 -0.0682602,-0.0832568 -0.188336,-0.154827 -0.360538,-0.214916 -0.116663,-0.0415767 -0.384739,-0.11325 -0.801851,-0.217192 -0.537291,-0.132901 -0.91386,-0.296932 -1.12991,-0.49106 -0.305103,-0.272731 -0.45755,-0.605447 -0.45755,-0.998254 0,-0.25308 0.0715698,-0.488785 0.214916,-0.709389 0.143243,-0.21957 0.350092,-0.387118 0.619203,-0.502643 0.270455,-0.114388 0.595105,-0.172098 0.976328,-0.172098 0.62396,0 1.09185,0.136314 1.4073,0.408941 0.314307,0.273868 0.479476,0.637819 0.495611,1.09423l-1.00167 0.043852c-0.0427144,-0.255355 -0.135176,-0.439037 -0.276144,-0.550012 -0.140968,-0.112009 -0.352368,-0.167444 -0.634303,-0.167444 -0.29114,0 -0.519915,0.0588486 -0.68405,0.179028 -0.106217,0.0762239 -0.159377,0.179131 -0.159377,0.307378 0,0.117801 0.0496438,0.218329 0.149035,0.301483 0.125971,0.10632 0.433246,0.217295 0.920789,0.331683 0.487647,0.115525 0.848082,0.234464 1.08151,0.357022 0.233326,0.123592 0.41587,0.29114 0.548771,0.504815 0.131763,0.213779 0.197541,0.477201 0.197541,0.790371 0,0.284211 -0.0784993,0.551046 -0.236842,0.798334 -0.15824,0.248426 -0.381223,0.433246 -0.670088,0.553425 -0.288865,0.121317 -0.649299,0.181407 -1.08027,0.181407 -0.627373,0 -1.10923,-0.144381 -1.44546,-0.434383 -0.33613,-0.290003 -0.537187,-0.712906 -0.601931,-1.26747z"/>
  <path id="1" class="fil2" d="M45.481 9.66451l0 0.757895 -0.649299 0 0 1.44887c0,0.293519 0.00579178,0.46448 0.018513,0.512986 0.0127212,0.0485061 0.040439,0.0878075 0.084291,0.120179 0.0439554,0.0312342 0.0982533,0.0473685 0.160618,0.0473685 0.0889451,0 0.216054,-0.0311308 0.383602,-0.0912205l0.080878 0.737107c-0.221846,0.0947369 -0.471409,0.142105 -0.752207,0.142105 -0.170961,0 -0.325787,-0.0288555 -0.463239,-0.0855321 -0.137555,-0.0577109 -0.238083,-0.132797 -0.302724,-0.224121 -0.0647438,-0.0912205 -0.108596,-0.214916 -0.134038,-0.370881 -0.0196507,-0.109733 -0.0300966,-0.333855 -0.0300966,-0.670088l0 -1.56678 -0.436659 0 0 -0.757895 0.436659 0 0 -0.715181 0.954402 -0.554563 0 1.26974 0.649299 0z"/>
  <path id="12" class="fil2" d="M46.8524 10.761l-0.863078 -0.156068c0.0971157,-0.347713 0.263422,-0.604206 0.500265,-0.771754 0.238083,-0.16641 0.589313,-0.250701 1.05607,-0.250701 0.425178,0 0.740623,0.0507815 0.94861,0.15131 0.206746,0.100529 0.353505,0.227637 0.4379,0.382464 0.084291,0.154827 0.127005,0.4379 0.127005,0.851495l-0.0103425 1.11037c0,0.315445 0.0149966,0.548771 0.0462308,0.699047 0.0299931,0.149035 0.0878075,0.310791 0.170961,0.481752l-0.941681 0c-0.0242014,-0.0635027 -0.0554356,-0.157102 -0.0912205,-0.280798 -0.0149966,-0.0565732 -0.0265801,-0.0935992 -0.0335096,-0.112009 -0.162894,0.15824 -0.336233,0.276144 -0.521053,0.355884 -0.184923,0.0784993 -0.382464,0.117801 -0.592726,0.117801 -0.369743,0 -0.662021,-0.100529 -0.874662,-0.300448 -0.213779,-0.200954 -0.319996,-0.455172 -0.319996,-0.762549 0,-0.202195 0.0485061,-0.383602 0.145518,-0.542979 0.0971157,-0.159481 0.233429,-0.280798 0.407907,-0.365089 0.174477,-0.0843945 0.427454,-0.158343 0.756758,-0.221846 0.443691,-0.0832568 0.752104,-0.161756 0.923168,-0.233429l0 -0.0947369c0,-0.183682 -0.0450931,-0.313066 -0.135176,-0.391669 -0.0901862,-0.0773616 -0.260009,-0.116663 -0.510711,-0.116663 -0.169823,0 -0.301586,0.0335096 -0.396323,0.100529 -0.0947369,0.065778 -0.170961,0.182544 -0.229913,0.350092zm1.27212 0.771754c-0.121317,0.040439 -0.314307,0.0889451 -0.578867,0.145622 -0.263422,0.0565732 -0.435624,0.112009 -0.51764,0.165169 -0.123592,0.0889451 -0.185957,0.19992 -0.185957,0.335096 0,0.134038 0.0496438,0.248426 0.149035,0.345438 0.099391,0.0970123 0.225259,0.145622 0.378948,0.145622 0.172202,0 0.335096,-0.0566767 0.49106,-0.168685 0.115525,-0.0855321 0.190611,-0.190715 0.226396,-0.315445 0.0254424,-0.080878 0.037026,-0.235705 0.037026,-0.463342l0 -0.189474z"/>
  <path id="123" class="fil2" d="M53.2672 13.2589l-0.950886 0 0 -1.83475c0,-0.388256 -0.0207883,-0.638957 -0.0612273,-0.753345 -0.040439,-0.11325 -0.107458,-0.202195 -0.198782,-0.265698 -0.0912205,-0.062365 -0.201057,-0.0947369 -0.329304,-0.0947369 -0.165169,0 -0.313066,0.0449897 -0.443588,0.135176 -0.130625,0.0912205 -0.220708,0.210262 -0.269214,0.359297 -0.0486096,0.149035 -0.0728109,0.424041 -0.0728109,0.826156l0 1.6279 -0.950886 0 0 -3.59442 0.882729 0 0 0.527982c0.314204,-0.406665 0.709389,-0.609998 1.18545,-0.609998 0.209124,0 0.402011,0.0380602 0.575351,0.11325 0.17334,0.0762239 0.304999,0.172098 0.393944,0.290003 0.0889451,0.117801 0.151414,0.250701 0.186061,0.399736 0.0357849,0.149035 0.0531602,0.361676 0.0531602,0.638957l0 2.23449z"/>
  <path id="1234" class="fil2" d="M57.5283 13.2589l-0.882729 0 0 -0.527982c-0.146759,0.205608 -0.320099,0.358159 -0.519915,0.458688 -0.19992,0.100529 -0.400977,0.150172 -0.60431,0.150172 -0.413595,0 -0.767204,-0.16641 -1.06176,-0.499127 -0.293519,-0.332717 -0.441416,-0.797197 -0.441416,-1.3922 0,-0.610102 0.143243,-1.07344 0.429833,-1.39003 0.286486,-0.316583 0.649299,-0.47596 1.0872,-0.47596 0.400977,0 0.748691,0.167548 1.04221,0.501402l0 -1.78738 0.950886 0 0 4.96241zm-2.53845 -1.87519c0,0.383602 0.0531602,0.660883 0.159481,0.832982 0.152448,0.247288 0.367364,0.372122 0.64237,0.372122 0.21957,0 0.405528,-0.0935992 0.559217,-0.27966 0.152551,-0.185957 0.229913,-0.46448 0.229913,-0.834223 0,-0.412457 -0.0750862,-0.710527 -0.222983,-0.891934 -0.149035,-0.181407 -0.339646,-0.272627 -0.573076,-0.272627 -0.225259,0 -0.413595,0.0900828 -0.566146,0.269214 -0.152448,0.179028 -0.228775,0.447104 -0.228775,0.804126z"/>
  <path id="12345" class="fil2" d="M59.177 10.761l-0.863078 -0.156068c0.0971157,-0.347713 0.263422,-0.604206 0.500265,-0.771754 0.238083,-0.16641 0.589313,-0.250701 1.05607,-0.250701 0.425178,0 0.740623,0.0507815 0.94861,0.15131 0.206746,0.100529 0.353505,0.227637 0.4379,0.382464 0.084291,0.154827 0.127005,0.4379 0.127005,0.851495l-0.0103425 1.11037c0,0.315445 0.0149966,0.548771 0.0462308,0.699047 0.0299931,0.149035 0.0878075,0.310791 0.170961,0.481752l-0.941681 0c-0.0242014,-0.0635027 -0.0554356,-0.157102 -0.0912205,-0.280798 -0.0149966,-0.0565732 -0.0265801,-0.0935992 -0.0335096,-0.112009 -0.162894,0.15824 -0.336233,0.276144 -0.521053,0.355884 -0.184923,0.0784993 -0.382464,0.117801 -0.592726,0.117801 -0.369743,0 -0.662021,-0.100529 -0.874662,-0.300448 -0.213779,-0.200954 -0.319996,-0.455172 -0.319996,-0.762549 0,-0.202195 0.0485061,-0.383602 0.145518,-0.542979 0.0971157,-0.159481 0.233429,-0.280798 0.407907,-0.365089 0.174477,-0.0843945 0.427454,-0.158343 0.756758,-0.221846 0.443691,-0.0832568 0.752104,-0.161756 0.923168,-0.233429l0 -0.0947369c0,-0.183682 -0.0450931,-0.313066 -0.135176,-0.391669 -0.0901862,-0.0773616 -0.260009,-0.116663 -0.510711,-0.116663 -0.169823,0 -0.301586,0.0335096 -0.396323,0.100529 -0.0947369,0.065778 -0.170961,0.182544 -0.229913,0.350092zm1.27212 0.771754c-0.121317,0.040439 -0.314307,0.0889451 -0.578867,0.145622 -0.263422,0.0565732 -0.435624,0.112009 -0.51764,0.165169 -0.123592,0.0889451 -0.185957,0.19992 -0.185957,0.335096 0,0.134038 0.0496438,0.248426 0.149035,0.345438 0.099391,0.0970123 0.225259,0.145622 0.378948,0.145622 0.172202,0 0.335096,-0.0566767 0.49106,-0.168685 0.115525,-0.0855321 0.190611,-0.190715 0.226396,-0.315445 0.0254424,-0.080878 0.037026,-0.235705 0.037026,-0.463342l0 -0.189474z"/>
  <path id="123456" class="fil2" d="M63.2324 13.2589l-0.950886 0 0 -3.59442 0.882729 0 0 0.510711c0.15131,-0.241496 0.287624,-0.400977 0.407803,-0.477201 0.121317,-0.0762239 0.257631,-0.115525 0.41132,-0.115525 0.217192,0 0.425178,0.0600897 0.626236,0.180269l-0.294657 0.828327c-0.159377,-0.102804 -0.308412,-0.154827 -0.445967,-0.154827 -0.134038,0 -0.246047,0.0358883 -0.338509,0.109837 -0.0935992,0.0728109 -0.165169,0.205608 -0.218329,0.397461 -0.0531602,0.191749 -0.0797403,0.593864 -0.0797403,1.205l0 1.11037z"/>
  <path id="1234567" class="fil2" d="M68.1775 13.2589l-0.882729 0 0 -0.527982c-0.146759,0.205608 -0.320099,0.358159 -0.519915,0.458688 -0.19992,0.100529 -0.400977,0.150172 -0.60431,0.150172 -0.413595,0 -0.767204,-0.16641 -1.06176,-0.499127 -0.293519,-0.332717 -0.441416,-0.797197 -0.441416,-1.3922 0,-0.610102 0.143243,-1.07344 0.429833,-1.39003 0.286486,-0.316583 0.649299,-0.47596 1.0872,-0.47596 0.400977,0 0.748691,0.167548 1.04221,0.501402l0 -1.78738 0.950886 0 0 4.96241zm-2.53845 -1.87519c0,0.383602 0.0531602,0.660883 0.159481,0.832982 0.152448,0.247288 0.367364,0.372122 0.64237,0.372122 0.21957,0 0.405528,-0.0935992 0.559217,-0.27966 0.152551,-0.185957 0.229913,-0.46448 0.229913,-0.834223 0,-0.412457 -0.0750862,-0.710527 -0.222983,-0.891934 -0.149035,-0.181407 -0.339646,-0.272627 -0.573076,-0.272627 -0.225259,0 -0.413595,0.0900828 -0.566146,0.269214 -0.152448,0.179028 -0.228775,0.447104 -0.228775,0.804126z"/>
  <path id="12345678" class="fil2" d="M72.3854 13.2589l-0.950886 0 0 -1.83475c0,-0.388256 -0.0207883,-0.638957 -0.0612273,-0.753345 -0.040439,-0.11325 -0.107458,-0.202195 -0.198782,-0.265698 -0.0912205,-0.062365 -0.201057,-0.0947369 -0.329304,-0.0947369 -0.165169,0 -0.313066,0.0449897 -0.443588,0.135176 -0.130625,0.0912205 -0.220708,0.210262 -0.269214,0.359297 -0.0486096,0.149035 -0.0728109,0.424041 -0.0728109,0.826156l0 1.6279 -0.950886 0 0 -3.59442 0.882729 0 0 0.527982c0.314204,-0.406665 0.709389,-0.609998 1.18545,-0.609998 0.209124,0 0.402011,0.0380602 0.575351,0.11325 0.17334,0.0762239 0.304999,0.172098 0.393944,0.290003 0.0889451,0.117801 0.151414,0.250701 0.186061,0.399736 0.0357849,0.149035 0.0531602,0.361676 0.0531602,0.638957l0 2.23449z"/>
  <path id="123456789" class="fil2" d="M73.3502 13.2589l0 -3.59442 0.950886 0 0 3.59442 -0.950886 0zm-0.0716732 -4.03459l0.466755 -1.01211 1.06651 0 -0.931338 1.01211 -0.601931 0z"/>
  <path id="12345678910" class="fil2" d="M80.2214 9.51196l-0.920892 0.101666c-0.021926,-0.189474 -0.080878,-0.3292 -0.175615,-0.420524 -0.0947369,-0.0900828 -0.218329,-0.135176 -0.369743,-0.135176 -0.19992,0 -0.369743,0.0900828 -0.509469,0.27149 -0.138692,0.180269 -0.225362,0.555804 -0.262285,1.1265 0.23798,-0.279557 0.531395,-0.419387 0.883866,-0.419387 0.397461,0 0.737107,0.151414 1.02018,0.454034 0.283073,0.301586 0.425178,0.692117 0.425178,1.17046 0,0.508332 -0.149035,0.915101 -0.447104,1.22238 -0.296932,0.30624 -0.680534,0.459929 -1.14729,0.459929 -0.500368,0 -0.912825,-0.194128 -1.2352,-0.583521 -0.322271,-0.389394 -0.484027,-1.02711 -0.484027,-1.91449 0,-0.909309 0.167548,-1.5644 0.503678,-1.96651 0.336233,-0.402011 0.772995,-0.603069 1.31029,-0.603069 0.376672,0 0.688601,0.10632 0.935786,0.316583 0.247288,0.2114 0.40439,0.51764 0.47265,0.919651zm-2.15599 2.07511c0,0.308516 0.0704321,0.547633 0.212538,0.715181 0.142105,0.168685 0.305103,0.25308 0.487647,0.25308 0.176753,0 0.322271,-0.0693979 0.440175,-0.206849 0.117801,-0.137451 0.175615,-0.363951 0.175615,-0.677017 0,-0.322374 -0.062365,-0.559217 -0.189474,-0.709493 -0.125971,-0.150172 -0.284211,-0.225259 -0.473685,-0.225259 -0.182544,0 -0.337371,0.0716732 -0.463342,0.214916 -0.127109,0.143243 -0.189474,0.355884 -0.189474,0.635441z"/>
  <polygon id="1234567891011" class="fil2" points="80.8476,11.2555 80.8476,10.3647 84.3172,10.3647 84.3172,11.2555 "/>
  <path id="123456789101112" class="fil2" d="M85.0185 13.4958l1.08606 0.131763c0.018513,0.127109 0.0600897,0.213675 0.12473,0.261044 0.0901862,0.0681568 0.233429,0.101666 0.42642,0.101666 0.248322,0 0.434383,-0.0369226 0.559217,-0.112009 0.0831534,-0.0497472 0.146656,-0.129384 0.189474,-0.240359 0.0288555,-0.0784993 0.043852,-0.224121 0.043852,-0.436762l0 -0.524466c-0.284211,0.388152 -0.643508,0.58228 -1.07686,0.58228 -0.482889,0 -0.865353,-0.20447 -1.14729,-0.612377 -0.220605,-0.323512 -0.331579,-0.724386 -0.331579,-1.2051 0,-0.603069 0.145622,-1.06289 0.435624,-1.38175 0.290003,-0.317824 0.650437,-0.477201 1.08141,-0.477201 0.443691,0 0.811056,0.195266 1.09992,0.585797l0 -0.503781 0.889658 0 0 3.22581c0,0.424041 -0.0346472,0.740623 -0.105079,0.950886 -0.0693979,0.210366 -0.167548,0.374397 -0.293519,0.494576 -0.127109,0.118938 -0.295794,0.212538 -0.506056,0.280694 -0.2114,0.0670191 -0.478339,0.101666 -0.800713,0.101666 -0.609998,0 -1.04211,-0.105079 -1.29632,-0.313066 -0.255355,-0.209124 -0.382464,-0.473685 -0.382464,-0.793784 0,-0.0323719 0.00113767,-0.0704321 0.00351644,-0.115525zm0.849219 -2.10862c0,0.381326 0.0739486,0.660883 0.221846,0.837739 0.147897,0.176753 0.3292,0.265698 0.546495,0.265698 0.232188,0 0.428591,-0.0912205 0.58921,-0.272627 0.159481,-0.181407 0.240359,-0.450621 0.240359,-0.807643 0,-0.372018 -0.077465,-0.648162 -0.231154,-0.828431 -0.152448,-0.181407 -0.346576,-0.27149 -0.581143,-0.27149 -0.228775,0 -0.41587,0.0889451 -0.563767,0.265698 -0.147897,0.177994 -0.221846,0.447104 -0.221846,0.811056z"/>
  <path id="12345678910111213" class="fil2" d="M90.2513 13.2589l-0.950886 0 0 -3.59442 0.882729 0 0 0.510711c0.15131,-0.241496 0.287624,-0.400977 0.407803,-0.477201 0.121317,-0.0762239 0.257631,-0.115525 0.41132,-0.115525 0.217192,0 0.425178,0.0600897 0.626236,0.180269l-0.294657 0.828327c-0.159377,-0.102804 -0.308412,-0.154827 -0.445967,-0.154827 -0.134038,0 -0.246047,0.0358883 -0.338509,0.109837 -0.0935992,0.0728109 -0.165169,0.205608 -0.218329,0.397461 -0.0531602,0.191749 -0.0797403,0.593864 -0.0797403,1.205l0 1.11037z"/>
  <path id="1234567891011121314" class="fil2" d="M92.7492 10.761l-0.863078 -0.156068c0.0971157,-0.347713 0.263422,-0.604206 0.500265,-0.771754 0.238083,-0.16641 0.589313,-0.250701 1.05607,-0.250701 0.425178,0 0.740623,0.0507815 0.94861,0.15131 0.206746,0.100529 0.353505,0.227637 0.4379,0.382464 0.084291,0.154827 0.127005,0.4379 0.127005,0.851495l-0.0103425 1.11037c0,0.315445 0.0149966,0.548771 0.0462308,0.699047 0.0299931,0.149035 0.0878075,0.310791 0.170961,0.481752l-0.941681 0c-0.0242014,-0.0635027 -0.0554356,-0.157102 -0.0912205,-0.280798 -0.0149966,-0.0565732 -0.0265801,-0.0935992 -0.0335096,-0.112009 -0.162894,0.15824 -0.336233,0.276144 -0.521053,0.355884 -0.184923,0.0784993 -0.382464,0.117801 -0.592726,0.117801 -0.369743,0 -0.662021,-0.100529 -0.874662,-0.300448 -0.213779,-0.200954 -0.319996,-0.455172 -0.319996,-0.762549 0,-0.202195 0.0485061,-0.383602 0.145518,-0.542979 0.0971157,-0.159481 0.233429,-0.280798 0.407907,-0.365089 0.174477,-0.0843945 0.427454,-0.158343 0.756758,-0.221846 0.443691,-0.0832568 0.752104,-0.161756 0.923168,-0.233429l0 -0.0947369c0,-0.183682 -0.0450931,-0.313066 -0.135176,-0.391669 -0.0901862,-0.0773616 -0.260009,-0.116663 -0.510711,-0.116663 -0.169823,0 -0.301586,0.0335096 -0.396323,0.100529 -0.0947369,0.065778 -0.170961,0.182544 -0.229913,0.350092zm1.27212 0.771754c-0.121317,0.040439 -0.314307,0.0889451 -0.578867,0.145622 -0.263422,0.0565732 -0.435624,0.112009 -0.51764,0.165169 -0.123592,0.0889451 -0.185957,0.19992 -0.185957,0.335096 0,0.134038 0.0496438,0.248426 0.149035,0.345438 0.099391,0.0970123 0.225259,0.145622 0.378948,0.145622 0.172202,0 0.335096,-0.0566767 0.49106,-0.168685 0.115525,-0.0855321 0.190611,-0.190715 0.226396,-0.315445 0.0254424,-0.080878 0.037026,-0.235705 0.037026,-0.463342l0 -0.189474z"/>
  <path id="123456789101112131415" class="fil2" d="M95.8226 9.66451l0.876937 0 0 0.489922c0.31317,-0.381326 0.687463,-0.571938 1.12071,-0.571938 0.230016,0 0.429833,0.0473685 0.598518,0.142105 0.169823,0.0947369 0.308516,0.23798 0.417111,0.429833 0.157102,-0.191853 0.328166,-0.335096 0.510711,-0.429833 0.182544,-0.0947369 0.37781,-0.142105 0.585797,-0.142105 0.263422,0 0.487543,0.0542979 0.670088,0.161756 0.182544,0.10632 0.318858,0.26456 0.409044,0.471409 0.065778,0.153585 0.0981499,0.402011 0.0981499,0.745174l0 2.29809 -0.950886 0 0 -2.05432c0,-0.357022 -0.0323719,-0.586934 -0.0981499,-0.690876 -0.0878075,-0.135176 -0.222983,-0.203333 -0.405528,-0.203333 -0.134038,0 -0.258872,0.040439 -0.376672,0.122455 -0.116766,0.080878 -0.201057,0.19992 -0.25308,0.357022 -0.0520226,0.157102 -0.0784993,0.40439 -0.0784993,0.742899l0 1.72616 -0.950886 0 0 -1.96993c0,-0.350092 -0.0173753,-0.575351 -0.0508849,-0.677121 -0.0335096,-0.101666 -0.0866698,-0.176753 -0.157102,-0.226396 -0.0716732,-0.0496438 -0.167548,-0.0750862 -0.290003,-0.0750862 -0.146759,0 -0.278522,0.0393013 -0.395185,0.118938 -0.117801,0.0786027 -0.202195,0.19299 -0.252977,0.342025 -0.0508849,0.149035 -0.0763273,0.395185 -0.0763273,0.740623l0 1.74694 -0.950886 0 0 -3.59442z"/>
  <path id="12345678910111213141516" class="fil2" d="M101.838 11.4103c0,-0.315445 0.0786027,-0.621582 0.233429,-0.917376 0.155964,-0.294657 0.376672,-0.521053 0.662021,-0.67588 0.285348,-0.156068 0.60431,-0.234567 0.956677,-0.234567 0.542979,0 0.988946,0.176753 1.33676,0.530258 0.347817,0.353609 0.521053,0.799575 0.521053,1.33914 0,0.543082 -0.175615,0.9936 -0.525707,1.35176 -0.35123,0.358263 -0.792543,0.536153 -1.32518,0.536153 -0.330442,0 -0.643611,-0.0739486 -0.942818,-0.222983 -0.299207,-0.149035 -0.526845,-0.367468 -0.682809,-0.655091 -0.154827,-0.287727 -0.233429,-0.637819 -0.233429,-1.05141zm0.97519 0.0507815c0,0.357022 0.084291,0.629752 0.254114,0.819226 0.168685,0.189474 0.37781,0.284211 0.626236,0.284211 0.248426,0 0.456413,-0.0947369 0.62396,-0.284211 0.168685,-0.189474 0.252977,-0.46448 0.252977,-0.826156 0,-0.35123 -0.084291,-0.622719 -0.252977,-0.812193 -0.167548,-0.189474 -0.375535,-0.284211 -0.62396,-0.284211 -0.248426,0 -0.45755,0.0947369 -0.626236,0.284211 -0.169823,0.189474 -0.254114,0.463342 -0.254114,0.819123z"/>
  <path id="1234567891011121314151617" class="fil2" d="M107.142 13.2589l-1.44887 -3.59442 0.998357 0 0.677017 1.83475 0.196403 0.612377c0.0520226,-0.155964 0.0855321,-0.258872 0.0982533,-0.308516 0.0322685,-0.101666 0.065778,-0.203333 0.101666,-0.303861l0.683947 -1.83475 0.978603 0 -1.42922 3.59442 -0.856149 0z"/>
  <path id="123456789101112131415161718" class="fil2" d="M109.559 9.66451l1.01211 0 0.859665 2.55221 0.839911 -2.55221 0.984395 0 -1.26861 3.45924 -0.227637 0.626236c-0.0831534,0.209124 -0.162894,0.369743 -0.23798,0.480614 -0.0762239,0.110975 -0.162894,0.19992 -0.261147,0.269214 -0.0981499,0.0681568 -0.218329,0.122455 -0.361572,0.160618 -0.143346,0.0380602 -0.305103,0.0577109 -0.486509,0.0577109 -0.182544,0 -0.361572,-0.0196507 -0.538325,-0.0577109l-0.0843945 -0.745278c0.149035,0.0300966 0.283073,0.0439554 0.403252,0.0439554 0.220708,0 0.384739,-0.0647438 0.49106,-0.194128 0.105079,-0.129384 0.187095,-0.294657 0.243772,-0.495611l-1.368 -3.60486zm1.368 -0.440175l0.466755 -1.01211 1.06641 0 -0.931235 1.01211 -0.601931 0z"/>
  <path id="12345678910111213141516171819" class="fil2" d="M115.72 9.66451l0.876937 0 0 0.489922c0.31317,-0.381326 0.687463,-0.571938 1.12071,-0.571938 0.230016,0 0.429833,0.0473685 0.598518,0.142105 0.169823,0.0947369 0.308516,0.23798 0.417111,0.429833 0.157102,-0.191853 0.328166,-0.335096 0.510711,-0.429833 0.182544,-0.0947369 0.37781,-0.142105 0.585797,-0.142105 0.263422,0 0.487543,0.0542979 0.670088,0.161756 0.182544,0.10632 0.318858,0.26456 0.409044,0.471409 0.065778,0.153585 0.0981499,0.402011 0.0981499,0.745174l0 2.29809 -0.950886 0 0 -2.05432c0,-0.357022 -0.0323719,-0.586934 -0.0981499,-0.690876 -0.0878075,-0.135176 -0.222983,-0.203333 -0.405528,-0.203333 -0.134038,0 -0.258872,0.040439 -0.376672,0.122455 -0.116766,0.080878 -0.201057,0.19992 -0.25308,0.357022 -0.0520226,0.157102 -0.0784993,0.40439 -0.0784993,0.742899l0 1.72616 -0.950886 0 0 -1.96993c0,-0.350092 -0.0173753,-0.575351 -0.0508849,-0.677121 -0.0335096,-0.101666 -0.0866698,-0.176753 -0.157102,-0.226396 -0.0716732,-0.0496438 -0.167548,-0.0750862 -0.290003,-0.0750862 -0.146759,0 -0.278522,0.0393013 -0.395185,0.118938 -0.117801,0.0786027 -0.202195,0.19299 -0.252977,0.342025 -0.0508849,0.149035 -0.0763273,0.395185 -0.0763273,0.740623l0 1.74694 -0.950886 0 0 -3.59442z"/>
  <path id="1234567891011121314151617181920" class="fil2" d="M121.735 11.4103c0,-0.315445 0.0786027,-0.621582 0.233429,-0.917376 0.155964,-0.294657 0.376672,-0.521053 0.662021,-0.67588 0.285348,-0.156068 0.60431,-0.234567 0.956677,-0.234567 0.542979,0 0.988946,0.176753 1.33676,0.530258 0.347817,0.353609 0.521053,0.799575 0.521053,1.33914 0,0.543082 -0.175615,0.9936 -0.525707,1.35176 -0.35123,0.358263 -0.792543,0.536153 -1.32518,0.536153 -0.330442,0 -0.643611,-0.0739486 -0.942818,-0.222983 -0.299207,-0.149035 -0.526845,-0.367468 -0.682809,-0.655091 -0.154827,-0.287727 -0.233429,-0.637819 -0.233429,-1.05141zm0.97519 0.0507815c0,0.357022 0.084291,0.629752 0.254114,0.819226 0.168685,0.189474 0.37781,0.284211 0.626236,0.284211 0.248426,0 0.456413,-0.0947369 0.62396,-0.284211 0.168685,-0.189474 0.252977,-0.46448 0.252977,-0.826156 0,-0.35123 -0.084291,-0.622719 -0.252977,-0.812193 -0.167548,-0.189474 -0.375535,-0.284211 -0.62396,-0.284211 -0.248426,0 -0.45755,0.0947369 -0.626236,0.284211 -0.169823,0.189474 -0.254114,0.463342 -0.254114,0.819123z"/>
  <path id="123456789101112131415161718192021" class="fil2" d="M129.486 13.2589l-0.882729 0 0 -0.527982c-0.146759,0.205608 -0.320099,0.358159 -0.519915,0.458688 -0.19992,0.100529 -0.400977,0.150172 -0.60431,0.150172 -0.413595,0 -0.767204,-0.16641 -1.06176,-0.499127 -0.293519,-0.332717 -0.441416,-0.797197 -0.441416,-1.3922 0,-0.610102 0.143243,-1.07344 0.429833,-1.39003 0.286486,-0.316583 0.649299,-0.47596 1.0872,-0.47596 0.400977,0 0.748691,0.167548 1.04221,0.501402l0 -1.78738 0.950886 0 0 4.96241zm-2.53845 -1.87519c0,0.383602 0.0531602,0.660883 0.159481,0.832982 0.152448,0.247288 0.367364,0.372122 0.64237,0.372122 0.21957,0 0.405528,-0.0935992 0.559217,-0.27966 0.152551,-0.185957 0.229913,-0.46448 0.229913,-0.834223 0,-0.412457 -0.0750862,-0.710527 -0.222983,-0.891934 -0.149035,-0.181407 -0.339646,-0.272627 -0.573076,-0.272627 -0.225259,0 -0.413595,0.0900828 -0.566146,0.269214 -0.152448,0.179028 -0.228775,0.447104 -0.228775,0.804126z"/>
  <path id="12345678910111213141516171819202122" class="fil2" d="M132.505 12.1151l0.94861 0.158343c-0.122455,0.347713 -0.314307,0.612377 -0.57773,0.793784 -0.262181,0.182544 -0.591485,0.272627 -0.98667,0.272627 -0.625098,0 -1.0872,-0.203333 -1.38765,-0.612377 -0.236842,-0.326925 -0.355781,-0.740623 -0.355781,-1.23851 0,-0.596243 0.155964,-1.063 0.467893,-1.40037 0.310791,-0.337371 0.704735,-0.506056 1.1808,-0.506056 0.534912,0 0.956677,0.176753 1.26633,0.530258 0.308516,0.353609 0.456413,0.894312 0.443691,1.62335l-2.38363 0c0.00692945,0.281935 0.0831534,0.501506 0.229913,0.65747 0.146759,0.157102 0.330442,0.235705 0.548874,0.235705 0.149035,0 0.273765,-0.040439 0.375431,-0.121317 0.101666,-0.0821191 0.179131,-0.212641 0.229913,-0.39291zm0.0542979 -0.961228c-0.00692945,-0.276144 -0.0773616,-0.485268 -0.212538,-0.628511 -0.135176,-0.143346 -0.300448,-0.214916 -0.494473,-0.214916 -0.207987,0 -0.379051,0.0762239 -0.514227,0.227637 -0.135176,0.150172 -0.202195,0.355781 -0.199816,0.61579l1.42105 0z"/>
  <polygon id="1234567891011121314151617181920212223" class="fil2" points="134.28,13.2589 134.28,8.29651 135.231,8.29651 135.231,13.2589 "/>
  <path class="fil2" d="M75.9544 129.992l0 -4.17877 1.57609 0c0.277385,0 0.489405,0.0135486 0.635337,0.0398185 0.205298,0.0340267 0.377603,0.0992876 0.516709,0.195576 0.138175,0.0953575 0.249977,0.230637 0.334682,0.402839 0.0846013,0.173133 0.126488,0.362917 0.126488,0.570076 0,0.35516 -0.112836,0.656746 -0.338612,0.902897 -0.226707,0.24522 -0.635337,0.368812 -1.22589,0.368812l-1.0722 0 0 1.69875 -0.552598 0zm0.552598 -2.19208l1.08099 0c0.357022,0 0.610929,-0.0660883 0.760791,-0.199403 0.149862,-0.133314 0.224742,-0.320099 0.224742,-0.561389 0,-0.175201 -0.0437486,-0.32496 -0.13228,-0.449483 -0.0885314,-0.124627 -0.204367,-0.206332 -0.349265,-0.246254 -0.0934958,-0.0243048 -0.264663,-0.0369226 -0.515675,-0.0369226l-1.06931 0 0 1.49345z"/>
  <polygon id="1" class="fil2" points="79.7712,129.992 79.7712,125.813 80.2839,125.813 80.2839,129.992 "/>
  <path id="12" class="fil2" d="M81.0565 131.157l-0.0575041 -0.481648c0.11294,0.0302 0.210159,0.0458171 0.293933,0.0458171 0.113767,0 0.205194,-0.0195472 0.273351,-0.0575041 0.0690876,-0.0378534 0.124523,-0.0903931 0.168272,-0.159481 0.0330959,-0.050678 0.0847047,-0.178097 0.156688,-0.38143 0.00972191,-0.0291657 0.025339,-0.0700184 0.0457137,-0.125557l-1.14801 -3.03262 0.552598 0 0.630476 1.75222c0.0807746,0.22288 0.154723,0.456309 0.218846,0.701529 0.0593657,-0.235394 0.129488,-0.4651 0.211193,-0.689842l0.647024 -1.76391 0.512676 0 -1.15091 3.07843c-0.123592,0.332717 -0.219984,0.561389 -0.288037,0.686843 -0.0914273,0.169306 -0.195576,0.292898 -0.313273,0.371708 -0.118731,0.0788095 -0.258872,0.118628 -0.422283,0.118628 -0.0992876,0 -0.209228,-0.0213055 -0.330752,-0.0631924z"/>
  <path id="123" class="fil2" d="M83.9986 129.992l0 -3.02682 0.46117 0 0 0.430039c0.22288,-0.332717 0.54391,-0.499127 0.963297,-0.499127 0.182855,0 0.350196,0.0330959 0.502954,0.0982533 0.153792,0.0661917 0.267559,0.151827 0.343473,0.258768 0.0768445,0.106114 0.129384,0.232602 0.160515,0.378534 0.018513,0.0953575 0.0282349,0.261664 0.0282349,0.499127l0 1.86123 -0.51371 0 0 -1.84178c0,-0.208194 -0.0194438,-0.364882 -0.0593657,-0.468927 -0.0399219,-0.103218 -0.110871,-0.185854 -0.212124,-0.247185 -0.10208,-0.0622616 -0.220811,-0.0933924 -0.358056,-0.0933924 -0.218846,0 -0.406665,0.0700184 -0.56625,0.208194 -0.15855,0.139106 -0.237359,0.401804 -0.237359,0.79006l0 1.65304 -0.512779 0z"/>
  <path id="1234" class="fil2" d="M89.1709 129.992l0 -0.444622c-0.236429,0.342439 -0.556528,0.512779 -0.961331,0.512779 -0.177994,0 -0.345335,-0.0341301 -0.500058,-0.102183 -0.154723,-0.0681568 -0.269524,-0.154723 -0.344404,-0.257837 -0.0759136,-0.104149 -0.128453,-0.230637 -0.158653,-0.380396 -0.0203746,-0.101253 -0.0311308,-0.260837 -0.0311308,-0.479683l0 -1.87488 0.512779 0 0 1.67827c0,0.268594 0.0107562,0.448552 0.0311308,0.541945 0.0330959,0.135279 0.101149,0.240359 0.205298,0.318237 0.105079,0.0768445 0.234464,0.114801 0.388256,0.114801 0.153689,0 0.297656,-0.0389911 0.432935,-0.117801 0.135176,-0.0788095 0.230533,-0.186785 0.286072,-0.322064 0.0563664,-0.13621 0.0846013,-0.333648 0.0846013,-0.591485l0 -1.6219 0.512779 0 0 3.02682 -0.458274 0z"/>
  <polygon id="12345" class="fil2" points="90.422,129.992 90.422,125.813 90.9348,125.813 90.9348,129.992 "/>
  <path id="123456" class="fil2" d="M91.539 128.478c0,-0.560354 0.155654,-0.975811 0.467996,-1.24534 0.259803,-0.223811 0.577006,-0.336647 0.951506,-0.336647 0.416491,0 0.756964,0.13621 1.0207,0.409561 0.26456,0.27242 0.395909,0.648989 0.395909,1.1296 0,0.390221 -0.0583315,0.696668 -0.175098,0.919444 -0.116766,0.223811 -0.287003,0.396944 -0.50978,0.520536 -0.223811,0.123592 -0.467065,0.184923 -0.731729,0.184923 -0.423213,0 -0.765652,-0.135279 -1.02742,-0.4077 -0.261664,-0.27149 -0.392083,-0.662641 -0.392083,-1.17439zm0.527362 0c0,0.388256 0.0846013,0.678155 0.253907,0.870835 0.169306,0.193611 0.382361,0.289899 0.638233,0.289899 0.254942,0 0.467065,-0.0973225 0.636371,-0.290933 0.168272,-0.193611 0.252977,-0.489405 0.252977,-0.886349 0,-0.374604 -0.0847047,-0.658711 -0.254942,-0.851288 -0.170237,-0.19268 -0.38143,-0.288968 -0.634406,-0.288968 -0.255872,0 -0.468927,0.0962883 -0.638233,0.287934 -0.169306,0.191749 -0.253907,0.481648 -0.253907,0.86887z"/>
  <path id="1234567" class="fil2" d="M94.7721 129.088l0.506987 -0.0798438c0.0281315,0.203333 0.107975,0.358987 0.23829,0.467996 0.129488,0.107975 0.311411,0.16248 0.545875,0.16248 0.235394,0 0.410596,-0.0486096 0.524363,-0.143967 0.11387,-0.0962883 0.171271,-0.209228 0.171271,-0.337578 0,-0.116766 -0.0505746,-0.207263 -0.151724,-0.274385 -0.0701219,-0.0458171 -0.24522,-0.103218 -0.524466,-0.173236 -0.375535,-0.0953575 -0.637302,-0.177063 -0.7822,-0.247081 -0.145001,-0.0690876 -0.255976,-0.165479 -0.330855,-0.288037 -0.0748794,-0.122558 -0.112836,-0.257837 -0.112836,-0.405735 0,-0.135176 0.0311308,-0.259803 0.0933924,-0.374604 0.0613308,-0.115732 0.145932,-0.21109 0.251942,-0.287003 0.0798438,-0.0583315 0.18875,-0.108906 0.325994,-0.149759 0.138175,-0.0409561 0.286072,-0.0613308 0.443691,-0.0613308 0.237359,0 0.445553,0.0350609 0.625615,0.103114 0.179959,0.0681568 0.312239,0.160515 0.397874,0.277281 0.0856355,0.117697 0.143967,0.273455 0.176132,0.468927l-0.501092 0.0690876c-0.023374,-0.155654 -0.0894623,-0.277281 -0.198472,-0.364778 -0.10901,-0.0876006 -0.263629,-0.131349 -0.463135,-0.131349 -0.235394,0 -0.40377,0.0388876 -0.503988,0.116766 -0.101149,0.0777753 -0.151724,0.169203 -0.151724,0.273351 0,0.0671226 0.0213055,0.126488 0.0631924,0.179959 0.041887,0.055539 0.107044,0.100218 0.196507,0.137244 0.0516089,0.018513 0.202402,0.0622616 0.453413,0.130315 0.362917,0.0973225 0.615893,0.176132 0.75893,0.238394 0.143967,0.0613308 0.256803,0.151827 0.338612,0.269524 0.0817054,0.117697 0.122558,0.263629 0.122558,0.43883 0,0.171168 -0.0505746,0.331786 -0.149862,0.48351 -0.100218,0.150793 -0.244185,0.267559 -0.432004,0.350299 -0.187716,0.0826362 -0.400874,0.123592 -0.638233,0.123592 -0.394048,0 -0.693669,-0.0818088 -0.900001,-0.24522 -0.206229,-0.163514 -0.337578,-0.405735 -0.394048,-0.726765z"/>
  <path id="12345678" class="fil2" d="M99.0161 129.533l0.0739486 0.453413c-0.143967,0.0300966 -0.273351,0.0457137 -0.387222,0.0457137 -0.186785,0 -0.330855,-0.0292692 -0.43397,-0.0885314 -0.10208,-0.0584349 -0.174167,-0.13621 -0.215951,-0.232602 -0.041887,-0.0953575 -0.0632958,-0.297656 -0.0632958,-0.605137l0 -1.74157 -0.376465 0 0 -0.398909 0.376465 0 0 -0.750138 0.510814 -0.307481 0 1.05762 0.515675 0 0 0.398909 -0.515675 0 0 1.7698c0,0.146863 0.00879109,0.240255 0.0262698,0.282142 0.018513,0.0417835 0.0476787,0.0748794 0.0885314,0.100218 0.0408527,0.0243048 0.0992876,0.0369226 0.175201,0.0369226 0.0574006,0 0.13228,-0.00682602 0.225672,-0.0203746z"/>
  <path class="fil2" d="M4.72868 78.3115l-4.17877 0 0 -1.57609c0,-0.277385 0.0135486,-0.489405 0.0398185,-0.635337 0.0340267,-0.205298 0.0992876,-0.377603 0.195576,-0.516709 0.0953575,-0.138175 0.230637,-0.249977 0.402839,-0.334682 0.173133,-0.0846013 0.362917,-0.126488 0.570076,-0.126488 0.35516,0 0.656746,0.112836 0.902897,0.338612 0.24522,0.226707 0.368812,0.635337 0.368812,1.22589l0 1.0722 1.69875 0 0 0.552598zm-2.19208 -0.552598l0 -1.08099c0,-0.357022 -0.0660883,-0.610929 -0.199403,-0.760791 -0.133314,-0.149862 -0.320099,-0.224742 -0.561389,-0.224742 -0.175201,0 -0.32496,0.0437486 -0.449483,0.13228 -0.124627,0.0885314 -0.206332,0.204367 -0.246254,0.349265 -0.0243048,0.0934958 -0.0369226,0.264663 -0.0369226,0.515675l0 1.06931 1.49345 0z"/>
  <path id="1" class="fil2" d="M3.7538 72.7034l0.0651575 -0.530258c0.310377,0.0837739 0.550736,0.238394 0.721904,0.46417 0.17034,0.226707 0.255976,0.515675 0.255976,0.866905 0,0.442657 -0.136314,0.793887 -0.408734,1.05266 -0.27242,0.259803 -0.654781,0.389187 -1.14708,0.389187 -0.50978,0 -0.904862,-0.131349 -1.18597,-0.393013 -0.281211,-0.262698 -0.422283,-0.602241 -0.422283,-1.02059 0,-0.404804 0.138175,-0.735556 0.413491,-0.991531 0.275316,-0.256803 0.663572,-0.385257 1.1627,-0.385257 0.0311308,0 0.0768445,0.00103425 0.137141,0.00289589l0 2.25724c0.332717,-0.0184096 0.587658,-0.112836 0.763791,-0.282142 0.177063,-0.169306 0.265594,-0.379465 0.265594,-0.632441 0,-0.187716 -0.0496438,-0.348231 -0.148828,-0.481545 -0.0982533,-0.133314 -0.255872,-0.238394 -0.472857,-0.316272zm-0.828948 1.68427l0 -1.69006c-0.254942,0.0223397 -0.446587,0.0876006 -0.573076,0.193611 -0.197541,0.163514 -0.296725,0.375535 -0.296725,0.635337 0,0.235498 0.0788095,0.43397 0.236429,0.594484 0.157619,0.160515 0.368709,0.249046 0.633372,0.266629z"/>
  <path id="12" class="fil2" d="M4.72868 71.534l-3.02682 0 0 -0.46117 0.458274 0c-0.214089,-0.117697 -0.356091,-0.226707 -0.424248,-0.326925 -0.0680534,-0.0991842 -0.103114,-0.209124 -0.103114,-0.328787 0,-0.173236 0.0554356,-0.348334 0.165376,-0.527362l0.476787 0.177063c-0.0749828,0.124523 -0.111905,0.250081 -0.111905,0.375535 0,0.112836 0.0340267,0.213055 0.101149,0.30262 0.0681568,0.0894623 0.161549,0.152758 0.281211,0.190715 0.181924,0.0574006 0.38143,0.0855321 0.598311,0.0855321l1.58498 0 0 0.512779z"/>
  <path id="123" class="fil2" d="M5.88848 69.4092l-4.18663 0 0 -0.467065 0.393013 0c-0.153689,-0.10994 -0.269421,-0.234464 -0.346369,-0.37357 -0.0768445,-0.138175 -0.115732,-0.30655 -0.115732,-0.503988 0,-0.258872 0.0671226,-0.486509 0.199403,-0.68405 0.133314,-0.198472 0.321133,-0.3473 0.563354,-0.447518 0.242324,-0.101149 0.507918,-0.151827 0.796886,-0.151827 0.309343,0 0.588589,0.055539 0.836705,0.167444 0.248116,0.110871 0.437796,0.27242 0.57018,0.484441 0.131349,0.212124 0.197541,0.4349 0.197541,0.668433 0,0.171271 -0.0360952,0.324029 -0.108079,0.460239 -0.0719835,0.13621 -0.163411,0.247081 -0.273351,0.334682l1.47308 0 0 0.512779zm-2.65615 -0.46417c0.389083,0 0.677121,-0.0788095 0.863905,-0.236429 0.185854,-0.157619 0.279246,-0.349265 0.279246,-0.573076 0,-0.227637 -0.0962883,-0.423213 -0.289899,-0.585693 -0.19268,-0.16248 -0.49137,-0.244185 -0.896071,-0.244185 -0.386291,0 -0.674328,0.0797403 -0.866905,0.238394 -0.191749,0.15855 -0.288037,0.348334 -0.288037,0.568215 0,0.218846 0.102183,0.412457 0.306447,0.580832 0.204367,0.168272 0.502126,0.251942 0.891313,0.251942z"/>
  <polygon id="1234" class="fil2" points="4.72868,66.1741 0.549908,66.1741 0.549908,65.6614 4.72868,65.6614 "/>
  <path id="12345" class="fil2" d="M3.7538 62.794l0.0651575 -0.530258c0.310377,0.0837739 0.550736,0.238394 0.721904,0.46417 0.17034,0.226707 0.255976,0.515675 0.255976,0.866905 0,0.442657 -0.136314,0.793887 -0.408734,1.05266 -0.27242,0.259803 -0.654781,0.389187 -1.14708,0.389187 -0.50978,0 -0.904862,-0.131349 -1.18597,-0.393013 -0.281211,-0.262698 -0.422283,-0.602241 -0.422283,-1.02059 0,-0.404804 0.138175,-0.735556 0.413491,-0.991531 0.275316,-0.256803 0.663572,-0.385257 1.1627,-0.385257 0.0311308,0 0.0768445,0.00103425 0.137141,0.00289589l0 2.25724c0.332717,-0.0184096 0.587658,-0.112836 0.763791,-0.282142 0.177063,-0.169306 0.265594,-0.379465 0.265594,-0.632441 0,-0.187716 -0.0496438,-0.348231 -0.148828,-0.481545 -0.0982533,-0.133314 -0.255872,-0.238394 -0.472857,-0.316272zm-0.828948 1.68427l0 -1.69006c-0.254942,0.0223397 -0.446587,0.0876006 -0.573076,0.193611 -0.197541,0.163514 -0.296725,0.375535 -0.296725,0.635337 0,0.235498 0.0788095,0.43397 0.236429,0.594484 0.157619,0.160515 0.368709,0.249046 0.633372,0.266629z"/>
  <path id="123456" class="fil2" d="M4.72868 62.1363l-1.57329 -1.10623 -1.45353 1.02349 0 -0.641129 0.709286 -0.4651c0.135176,-0.0865664 0.248116,-0.157619 0.339543,-0.210159 -0.125557,-0.0836705 -0.236429,-0.160515 -0.333751,-0.231568l-0.715078 -0.50978 0 -0.612997 1.4254 1.04593 1.60143 -1.12567 0 0.629442 -0.940853 0.621789 -0.253907 0.165376 1.19476 0.794921 0 0.621685z"/>
  <path id="1234567" class="fil2" d="M1.14046 58.8731l-0.590554 0 0 -0.51371 0.590554 0 0 0.51371zm3.58821 0l-3.02682 0 0 -0.51371 3.02682 0 0 0.51371z"/>
  <path id="12345678" class="fil2" d="M4.26947 56.4582l0.453413 -0.0739486c0.0300966,0.143967 0.0457137,0.273351 0.0457137,0.387222 0,0.186785 -0.0292692,0.330855 -0.0885314,0.43397 -0.0584349,0.10208 -0.13621,0.174167 -0.232602,0.215951 -0.0953575,0.041887 -0.297656,0.0632958 -0.605137,0.0632958l-1.74157 0 0 0.376465 -0.398909 0 0 -0.376465 -0.750138 0 -0.307481 -0.510814 1.05762 0 0 -0.515675 0.398909 0 0 0.515675 1.7698 0c0.146863,0 0.240255,-0.00879109 0.282142,-0.0262698 0.0417835,-0.018513 0.0748794,-0.0476787 0.100218,-0.0885314 0.0243048,-0.0408527 0.0369226,-0.0992876 0.0369226,-0.175201 0,-0.0574006 -0.00682602,-0.13228 -0.0203746,-0.225672z"/>
  <path id="123456789" class="fil2" d="M4.35511 53.9811c0.161446,0.190715 0.275316,0.37357 0.342439,0.548771 0.0661917,0.176029 0.0992876,0.364778 0.0992876,0.56625 0,0.332717 -0.0807746,0.587658 -0.243255,0.766686 -0.16248,0.177994 -0.370777,0.267559 -0.622719,0.267559 -0.148828,0 -0.284107,-0.0330959 -0.406665,-0.101253 -0.122662,-0.0671226 -0.220915,-0.155654 -0.294863,-0.264663 -0.0739486,-0.10994 -0.130315,-0.232498 -0.168272,-0.369639 -0.0262698,-0.100218 -0.0525397,-0.252046 -0.0768445,-0.455378 -0.0496438,-0.414422 -0.108079,-0.719938 -0.177063,-0.915514 -0.0701219,-0.00196507 -0.114905,-0.00289589 -0.133314,-0.00289589 -0.209228,0 -0.357125,0.0486096 -0.441726,0.145932 -0.116766,0.130315 -0.174167,0.325891 -0.174167,0.583728 0,0.24129 0.0417835,0.419387 0.126488,0.535119 0.0846013,0.114801 0.234464,0.199506 0.449483,0.254942l-0.0690876 0.501092c-0.214089,-0.0458171 -0.388152,-0.120696 -0.519502,-0.224845 -0.132383,-0.104045 -0.234567,-0.255872 -0.305516,-0.45331 -0.0710527,-0.197541 -0.107044,-0.426213 -0.107044,-0.686946 0,-0.258768 0.0311308,-0.467996 0.0914273,-0.629442 0.0613308,-0.161549 0.137244,-0.280281 0.229603,-0.357125 0.0924616,-0.0759136 0.208194,-0.128453 0.349368,-0.159584 0.0874972,-0.0165479 0.245116,-0.0252356 0.472754,-0.0252356l0.68405 0c0.477718,0 0.779304,-0.0107562 0.904862,-0.0330959 0.126488,-0.0214089 0.248116,-0.0652609 0.363848,-0.129384l0 0.53605c-0.10601,0.0525397 -0.230637,0.0876006 -0.37357,0.102183zm-1.14615 0.0428178c0.0768445,0.186785 0.141071,0.466031 0.194542,0.837636 0.0302,0.211193 0.0642267,0.361055 0.102183,0.447622 0.0379568,0.0874972 0.0933924,0.155654 0.167341,0.202402 0.0730178,0.0476787 0.153689,0.0719835 0.243255,0.0719835 0.137141,0 0.251011,-0.0525397 0.342439,-0.155654 0.0904965,-0.103218 0.13621,-0.254942 0.13621,-0.454448 0,-0.197438 -0.0428178,-0.37357 -0.129384,-0.527258 -0.0865664,-0.153792 -0.205298,-0.267663 -0.35516,-0.339646 -0.115732,-0.0554356 -0.287003,-0.0826362 -0.512676,-0.0826362l-0.18875 0z"/>
  <polygon class="fil1 str2" points="21.5412,110.027 153.153,110.027 153.153,21.5413 21.5412,21.5413 "/>
  <line class="fil3 str3" x1="21.5412" y1="93.1922" x2="153.153" y2= "100.934" />
 </g>
</svg>
